<svg width="648" height="401" viewBox="0 0 648 401" fill="none" xmlns="http://www.w3.org/2000/svg">
<path d="M507.371 340.235C497.034 350.903 487.786 357.174 480.706 361.908C411.646 408.079 332.703 394.771 308.297 390.223C268.92 382.884 235.678 377.708 207.12 351.873C142.225 293.167 145.381 170.705 194.968 94.8445C200.847 85.8489 250.36 12.3632 329.475 2.00841C331.41 1.75452 332.854 1.61006 334.117 1.47655C346.357 0.178652 422.197 -6.66761 484.037 45.2068C492.888 52.6331 507.134 66.0258 520.345 86.4552C568.648 161.149 568.801 276.835 507.371 340.235Z" fill="#E6EDF0"/>
<g opacity="0.75">
<path opacity="0.75" d="M263.276 350.452C263.276 350.452 214.446 316.449 214.645 245.001C214.84 175.553 230.721 80.9791 159.577 40.4772C157.18 39.1136 154.304 41.2673 154.941 43.9484C158.702 59.81 166.935 100.955 162.836 142.782C157.603 196.173 171.794 327.092 263.276 350.452Z" fill="#47749E" fill-opacity="0.8"/>
<path opacity="0.47" d="M172.252 67.2277L172.515 67.4751L172.723 67.6852C172.863 67.8253 172.994 67.9631 173.119 68.0988C173.377 68.3724 173.622 68.6482 173.865 68.924C174.349 69.4777 174.819 70.0358 175.272 70.6027C175.734 71.1652 176.165 71.7474 176.605 72.323C177.023 72.9118 177.461 73.4896 177.864 74.0893C179.505 76.4663 181.002 78.9329 182.377 81.4631C185.135 86.519 187.343 91.8528 189.101 97.318C190.841 102.79 192.134 108.397 192.994 114.064C193.854 119.73 194.238 125.46 194.257 131.177C194.273 136.896 193.907 142.604 193.235 148.269L192.675 152.511L191.974 156.728C191.745 158.146 191.495 159.497 191.254 160.885C191.007 162.263 190.768 163.642 190.571 165.03C188.847 176.1 187.906 187.3 187.66 198.517L187.595 202.724L187.617 206.933C187.612 208.336 187.656 209.739 187.698 211.142C187.746 212.545 187.755 213.947 187.836 215.348C188.063 220.958 188.518 226.554 189.094 232.14C189.694 237.723 190.486 243.285 191.436 248.82C192.425 254.349 193.607 259.845 194.973 265.294C196.374 270.736 197.991 276.122 199.819 281.438C201.664 286.748 203.761 291.97 206.096 297.085C208.42 302.207 211.071 307.184 214.012 311.984C216.954 316.784 220.2 321.404 223.789 325.755C220.09 321.496 216.724 316.95 213.651 312.209C210.578 307.471 207.792 302.537 205.325 297.451C202.852 292.367 200.591 287.173 198.643 281.859C196.7 276.544 194.966 271.154 193.447 265.699C191.966 260.236 190.666 254.723 189.56 249.17C188.497 243.609 187.579 238.017 186.875 232.396C186.209 226.771 185.669 221.129 185.356 215.471C185.253 214.057 185.222 212.641 185.152 211.227C185.089 209.811 185.025 208.397 185.008 206.979L184.922 202.728L184.927 198.478C185.008 187.142 185.789 175.801 187.374 164.555C187.553 163.148 187.774 161.745 188.004 160.344L188.674 156.155L189.328 152.022L189.843 147.873C190.455 142.333 190.768 136.765 190.709 131.204C190.582 120.089 188.985 108.988 185.638 98.4277C184.78 95.7969 183.856 93.1858 182.769 90.6425C181.701 88.0926 180.549 85.5778 179.245 83.144C177.951 80.7058 176.54 78.331 174.999 76.0526C174.228 74.9145 173.427 73.7982 172.589 72.7192C172.173 72.1764 171.744 71.6489 171.309 71.1346C171.09 70.8785 170.871 70.6224 170.648 70.3795C170.536 70.2547 170.427 70.1343 170.319 70.0227L170.16 69.8542L170.041 69.736L169.932 69.6287C169.28 68.9787 169.278 67.9237 169.928 67.2693C170.567 66.6258 171.598 66.6127 172.252 67.2277Z" fill="white"/>
</g>
<g opacity="0.74">
<path opacity="0.74" d="M233.87 4.34282C233.861 2.67065 236.026 1.98559 237.002 3.34478C246.904 17.1533 269.367 57.084 250.316 115.371C226.416 188.503 236.632 218.921 252.774 239.427C252.774 239.427 227.639 226.323 216.321 195.27C188.531 119.029 234.034 34.0939 233.87 4.34282Z" fill="#47749E" fill-opacity="0.8"/>
<path opacity="0.47" d="M229.385 29.4495C230.311 32.9755 230.817 36.5256 231.171 40.1085L231.313 41.4502L231.412 42.7941L231.609 45.484C231.69 47.2787 231.76 49.0756 231.817 50.8726C231.942 58.0646 231.506 65.2502 230.773 72.3985C230.11 79.5621 228.823 86.6382 227.507 93.7033L226.358 98.9671L225.785 101.6L225.498 102.918L225.168 104.222L222.521 114.643C218.901 128.34 216.704 142.409 215.817 156.559C215.336 163.63 215.167 170.728 215.34 177.817C215.364 179.59 215.45 181.359 215.5 183.132C215.579 184.902 215.684 186.671 215.789 188.439C215.925 190.203 216.045 191.972 216.225 193.729C216.378 195.485 216.579 197.26 216.809 198.96L216.816 199.008C216.938 199.923 216.297 200.764 215.382 200.886C214.48 201.007 213.651 200.383 213.511 199.49C212.941 195.854 212.58 192.3 212.287 188.697C212.158 186.9 212.031 185.104 211.933 183.304C211.86 181.505 211.753 179.706 211.707 177.907C211.499 170.708 211.676 163.503 212.151 156.318C212.34 152.722 212.731 149.139 213.103 145.558C213.307 143.77 213.583 141.988 213.819 140.202L214.189 137.526C214.309 136.633 214.491 135.75 214.638 134.862L215.572 129.539C215.901 127.768 216.323 126.015 216.693 124.253L217.266 121.614C217.365 121.174 217.45 120.732 217.562 120.296L217.905 118.989L219.28 113.761C219.733 112.005 220.21 110.307 220.681 108.591L222.095 103.452L222.449 102.167L222.758 100.871L223.377 98.2799L224.616 93.0948L225.68 87.8726C226.026 86.1304 226.413 84.3947 226.678 82.6394L227.555 77.3843C227.715 76.5088 227.829 75.629 227.949 74.7491L228.311 72.1096C229.252 65.0707 229.897 57.9793 229.994 50.8748C230.011 49.0997 230.013 47.3247 230.007 45.5474L229.921 42.886L229.88 41.5531L229.792 40.2245C229.729 39.3403 229.687 38.4517 229.606 37.5674L229.341 34.9191C229.118 33.1681 228.904 31.3843 228.523 29.6859L228.519 29.664C228.464 29.4233 228.615 29.1825 228.858 29.1278C229.09 29.0731 229.324 29.2175 229.385 29.4495Z" fill="white"/>
</g>
<path d="M537.78 216.187C541.866 123.212 463.822 44.2652 363.463 39.8551C263.105 35.4449 178.437 107.241 174.351 200.216C170.265 293.191 248.31 372.138 348.668 376.548C449.026 380.958 533.695 309.162 537.78 216.187Z" fill="#7C7D81"/>
<g opacity="0.17">
<path opacity="0.17" d="M346.224 330.855C425.053 330.855 488.956 270.487 488.956 196.02C488.956 121.552 425.053 61.1846 346.224 61.1846C267.395 61.1846 203.492 121.552 203.492 196.02C203.492 270.487 267.395 330.855 346.224 330.855Z" fill="#C6C9D3"/>
</g>
<g opacity="0.68">
<path opacity="0.68" d="M402.535 208.991C402.491 238.712 400.453 268.496 395.215 297.796C393.889 305.115 392.353 312.399 390.521 319.613C388.684 326.824 386.561 333.975 383.966 340.964C381.348 347.935 378.308 354.807 374.186 361.086C372.109 364.203 369.754 367.191 366.845 369.649C365.392 370.87 363.797 371.951 362.041 372.746C360.29 373.534 358.375 374.033 356.432 374.068C354.49 374.125 352.547 373.744 350.761 373.026C348.968 372.312 347.333 371.279 345.845 370.1C342.868 367.718 340.461 364.766 338.346 361.673C334.151 355.437 331.071 348.58 328.425 341.618C325.794 334.64 323.654 327.496 321.8 320.289C319.95 313.079 318.396 305.798 317.061 298.481C314.393 283.845 312.572 269.067 311.344 254.249C310.125 239.43 309.515 224.562 309.438 209.692C309.401 202.257 309.604 194.824 309.869 187.397C310.147 179.969 310.556 172.547 311.104 165.132C312.202 150.308 313.846 135.516 316.286 120.846C317.512 113.511 318.939 106.21 320.657 98.9717C322.38 91.7358 324.382 84.5591 326.864 77.5355C328.112 74.027 329.478 70.5579 331.034 67.1676C332.588 63.7795 334.326 60.4658 336.37 57.3316C338.419 54.2127 340.774 51.2339 343.704 48.8504C345.171 47.6685 346.786 46.642 348.554 45.9438C350.316 45.239 352.229 44.8823 354.131 44.9545C356.035 45.0092 357.911 45.4841 359.642 46.2458C361.376 47.0119 362.969 48.0537 364.431 49.2334C367.355 51.6103 369.776 54.5169 371.925 57.568C376.196 63.7139 379.413 70.4923 382.201 77.3867C384.97 84.3008 387.255 91.3966 389.245 98.5624C391.228 105.733 392.909 112.984 394.362 120.277C400.114 149.478 402.449 179.264 402.535 208.991ZM400.335 208.991C400.361 194.182 399.799 179.369 398.569 164.611C397.356 149.852 395.518 135.138 392.779 120.585C391.411 113.31 389.82 106.076 387.925 98.9235C386.023 91.773 383.828 84.697 381.155 77.8025C378.463 70.9278 375.342 64.1735 371.199 58.0714C369.117 55.0422 366.769 52.1641 363.95 49.8243C362.54 48.66 361.013 47.6378 359.356 46.8849C357.703 46.1408 355.922 45.6527 354.112 45.6067C352.302 45.5498 350.494 45.9131 348.819 46.6026C347.138 47.2854 345.598 48.2879 344.19 49.4479C341.378 51.7854 339.097 54.7248 337.116 57.8175C335.14 60.9233 333.455 64.2151 331.955 67.5857C330.452 70.9563 329.136 74.4144 327.935 77.9098C325.547 84.9071 323.634 92.0663 321.999 99.2825C320.368 106.503 319.025 113.787 317.886 121.104C315.615 135.74 314.139 150.494 313.205 165.276C312.261 180.061 311.935 194.878 311.962 209.689C311.922 224.498 312.417 239.311 313.518 254.081C314.627 268.848 316.326 283.576 318.869 298.161C320.143 305.452 321.631 312.705 323.415 319.884C325.201 327.061 327.274 334.17 329.826 341.099C332.391 348.011 335.389 354.811 339.445 360.935C341.485 363.971 343.807 366.852 346.62 369.137C348.025 370.27 349.555 371.251 351.209 371.921C352.857 372.592 354.628 372.967 356.401 372.908C358.174 372.862 359.918 372.393 361.54 371.651C363.164 370.903 364.661 369.874 366.036 368.699C368.789 366.337 371.061 363.42 373.064 360.358C377.047 354.185 380.002 347.37 382.539 340.445C385.056 333.502 387.104 326.387 388.873 319.206C390.637 312.022 392.108 304.765 393.368 297.472C395.894 282.884 397.573 268.154 398.689 253.387C399.818 238.618 400.341 223.804 400.335 208.991Z" fill="white"/>
<path opacity="0.68" d="M477.512 208.992C477.409 228.132 474.949 247.279 469.825 265.738C464.612 284.154 456.754 301.869 446.084 317.775C440.748 325.72 434.705 333.196 427.951 339.981C421.201 346.764 413.733 352.851 405.631 357.95C397.519 363.033 388.758 367.099 379.587 369.859C370.421 372.626 360.852 374.068 351.276 374.079C341.698 374.079 332.127 372.643 322.957 369.885C313.779 367.134 305.011 363.072 296.891 357.996C288.778 352.901 281.301 346.821 274.54 340.04C267.775 333.26 261.719 325.783 256.372 317.84C245.682 301.933 237.805 284.209 232.568 265.786C229.989 256.557 228.074 247.145 226.805 237.651C225.542 228.154 224.907 218.578 224.863 208.996C224.914 199.416 225.553 189.841 226.822 180.344C228.098 170.851 230.02 161.442 232.605 152.217C237.855 133.801 245.744 116.088 256.44 100.198C261.789 92.2615 267.847 84.7937 274.61 78.0218C281.371 71.2522 288.843 65.1763 296.955 60.0986C305.073 55.0361 313.838 51.0045 322.998 48.2533C332.154 45.4911 341.709 44.051 351.274 44.04C360.839 44.0575 370.392 45.5065 379.541 48.2752C388.697 51.0329 397.456 55.0733 405.565 60.1401C413.667 65.2245 421.129 71.3047 427.879 78.0787C434.631 84.855 440.676 92.3228 446.014 100.259C456.691 116.147 464.561 133.851 469.788 152.258C474.923 170.707 477.396 189.851 477.512 208.992ZM474.991 208.992C474.962 190.068 472.605 171.127 467.612 152.86C462.592 134.622 455.032 117.016 444.627 101.181C439.426 93.2705 433.519 85.8158 426.905 79.0396C420.286 72.2743 412.976 66.1525 404.98 61.0638C396.976 56.0035 388.331 51.9325 379.268 49.1769C370.209 46.4213 360.749 44.9724 351.274 44.9396C341.799 44.979 332.342 46.4367 323.287 49.1988C314.228 51.9609 305.591 56.0407 297.596 61.1054C289.61 66.1985 282.31 72.3246 275.702 79.0943C269.099 85.8727 263.203 93.3296 258.016 101.24C247.63 117.073 240.088 134.672 235.091 152.9C232.603 162.024 230.801 171.328 229.58 180.703C228.356 190.077 227.752 199.532 227.73 208.987C227.757 218.445 228.367 227.898 229.597 237.27C230.825 246.642 232.633 255.944 235.128 265.064C240.136 283.285 247.691 300.873 258.086 316.689C263.277 324.59 269.171 332.038 275.775 338.81C282.382 345.569 289.675 351.689 297.66 356.766C305.653 361.818 314.287 365.869 323.331 368.629C332.368 371.396 341.81 372.86 351.272 372.908C360.736 372.869 370.178 371.413 379.222 368.655C388.27 365.902 396.911 361.859 404.913 356.812C412.906 351.739 420.212 345.624 426.828 338.869C433.442 332.102 439.35 324.656 444.552 316.755C454.966 300.937 462.539 283.342 467.571 265.11C472.581 246.854 474.949 227.915 474.991 208.992Z" fill="white"/>
<path opacity="0.68" d="M203.965 143.667L241.875 143.361L279.786 143.188L355.607 143.048L431.428 143.201L469.339 143.391L507.249 143.722C507.31 143.722 507.361 143.772 507.359 143.834C507.359 143.895 507.308 143.943 507.249 143.943L469.339 144.274L431.428 144.464L355.607 144.617L279.786 144.477L241.875 144.304L203.965 143.998C203.873 143.998 203.801 143.921 203.801 143.831C203.801 143.742 203.873 143.667 203.965 143.667Z" fill="white"/>
<path opacity="0.68" d="M247.945 80.1712C256.917 80.0289 265.888 79.9676 274.86 79.8647L301.777 79.6918C310.748 79.6174 319.72 79.6262 328.693 79.6021L355.608 79.5518L409.439 79.705L436.356 79.8954C445.327 80.007 454.299 80.0727 463.272 80.2259C463.334 80.2259 463.382 80.2784 463.382 80.3397C463.382 80.3988 463.331 80.4469 463.272 80.4491C454.301 80.6023 445.329 80.668 436.356 80.7796L409.439 80.97L355.608 81.1232L328.693 81.0729C319.722 81.051 310.75 81.0576 301.777 80.9832L274.86 80.8103C265.888 80.7074 256.917 80.6461 247.945 80.5038C247.853 80.5016 247.781 80.4272 247.781 80.3353C247.783 80.2434 247.858 80.1712 247.945 80.1712Z" fill="white"/>
<path opacity="0.68" d="M190.789 207.166L231.994 206.862L273.198 206.687L355.607 206.547L438.016 206.7L479.221 206.891L520.425 207.221C520.487 207.221 520.537 207.271 520.535 207.333C520.535 207.394 520.485 207.442 520.425 207.444L479.221 207.775L438.016 207.965L355.607 208.118L273.198 207.978L231.994 207.803L190.789 207.499C190.697 207.499 190.625 207.422 190.625 207.333C190.625 207.239 190.699 207.166 190.789 207.166Z" fill="white"/>
<path opacity="0.68" d="M203.965 270.662L241.875 270.356L279.786 270.183L355.607 270.043L431.428 270.196L469.339 270.387L507.249 270.717C507.31 270.717 507.361 270.767 507.359 270.829C507.359 270.89 507.308 270.938 507.249 270.938L469.339 271.269L431.428 271.459L355.607 271.612L279.786 271.472L241.875 271.299L203.965 270.993C203.873 270.993 203.801 270.916 203.801 270.827C203.801 270.737 203.873 270.662 203.965 270.662Z" fill="white"/>
<path opacity="0.68" d="M468.692 334.908H253.367C253.046 334.908 252.785 334.647 252.785 334.325C252.785 334.004 253.046 333.743 253.367 333.743H468.692C469.014 333.743 469.274 334.004 469.274 334.325C469.272 334.647 469.014 334.908 468.692 334.908Z" fill="white"/>
</g>
<path d="M272.316 72.5631C272.316 58.9363 283.363 47.8877 296.992 47.8877H506.829C518.405 47.8877 527.953 56.9599 528.541 68.5206L544.031 372.746C544.49 381.794 537.368 389.424 528.312 389.59L287.81 393.961C279.298 394.117 272.316 387.259 272.316 378.747V72.5631Z" fill="#25221D"/>
<path d="M322.958 388.79C322.956 388.79 322.954 388.79 322.954 388.79L296.042 388.442C287.044 388.326 279.723 380.908 279.723 371.911V331.279C279.723 330.962 279.981 330.706 280.296 330.706C280.613 330.706 280.87 330.962 280.87 331.279V371.911C280.87 380.285 287.681 387.183 296.055 387.293L322.965 387.641C323.282 387.645 323.536 387.906 323.532 388.223C323.527 388.538 323.271 388.79 322.958 388.79Z" fill="#5C5E61"/>
<path d="M280.296 319.269C279.979 319.269 279.723 319.013 279.723 318.696V312.116C279.723 311.799 279.981 311.543 280.296 311.543C280.613 311.543 280.87 311.799 280.87 312.116V318.696C280.872 319.013 280.613 319.269 280.296 319.269Z" fill="#5C5E61"/>
<path d="M289.508 52.5711C289.482 48.2112 293.316 44.8363 297.637 45.4228C326.291 49.3078 424.831 61.3281 506.299 55.0728C510.015 54.7883 513.239 57.603 513.436 61.3238L529.677 366.906C529.9 371.095 526.7 374.678 522.511 374.928C488.247 376.954 347.132 384.794 296.801 379.522C293.737 379.2 291.412 376.622 291.395 373.542L289.508 52.5711Z" fill="#7C7D81"/>
<path d="M292.887 60.2301C292.863 56.0344 296.553 52.7864 300.709 53.351C328.285 57.0915 423.113 68.6567 501.516 62.6377C505.093 62.3641 508.194 65.0716 508.384 68.6523L524.014 362.727C524.228 366.758 521.149 370.208 517.117 370.446C484.142 372.398 348.344 379.941 299.906 374.867C296.958 374.559 294.721 372.077 294.703 369.113L292.887 60.2301Z" fill="#BCBCBC"/>
<path opacity="0.78" d="M313.708 84.5301L316.81 147.578C316.912 149.675 318.707 151.342 320.929 151.402C333.29 151.73 371.812 152.618 393.561 151.548C396.021 151.428 397.967 149.548 398.05 147.221C398.463 135.398 399.372 100.985 396.52 86.5984C396.058 84.274 393.944 82.5712 391.442 82.4902L318.374 80.0761C315.737 79.9863 313.586 82.0437 313.708 84.5301Z" fill="white"/>
<g opacity="0.6">
<path opacity="0.6" d="M493.081 110.293C494.283 110.293 495.241 109.311 495.213 108.109L495.193 107.297C495.163 106.095 494.156 105.091 492.954 105.067L413.012 103.399C411.81 103.375 411.11 104.294 411.456 105.445L412.285 108.201C412.631 109.352 413.898 110.293 415.1 110.293H493.081Z" fill="white"/>
</g>
<g opacity="0.86">
<path opacity="0.86" d="M476.976 90.8055C478.177 90.8055 479.147 89.8228 479.127 88.6212L479.108 87.3649C479.088 86.1633 478.09 85.1455 476.891 85.1061L424.414 83.342C423.213 83.3026 422.409 84.235 422.63 85.4169L423.237 88.6584C423.458 89.8403 424.622 90.8077 425.824 90.8077H476.976V90.8055Z" fill="white"/>
</g>
<g opacity="0.6">
<path opacity="0.6" d="M413.012 117.796C411.81 117.772 411.11 118.692 411.456 119.843L412.285 122.598C412.631 123.75 413.898 124.691 415.1 124.691H493.083C494.285 124.691 495.243 123.708 495.215 122.506L495.195 121.694C495.165 120.493 494.158 119.488 492.956 119.464L413.012 117.796Z" fill="white"/>
</g>
<g opacity="0.6">
<path opacity="0.6" d="M413.012 132.408C411.81 132.384 411.11 133.303 411.456 134.454L412.285 137.21C412.631 138.361 413.898 139.302 415.1 139.302H493.083C494.285 139.302 495.243 138.319 495.215 137.118L495.195 136.306C495.165 135.104 494.158 134.1 492.956 134.075L413.012 132.408Z" fill="white"/>
</g>
<path d="M342.926 255.831C342.913 255.831 342.9 255.831 342.885 255.831L327.92 255.687C325.782 255.667 324.018 254.194 323.814 252.266L322.499 239.711C322.422 238.974 322.65 238.245 323.142 237.66C323.694 237.004 324.528 236.592 325.432 236.531C326.692 236.446 328.468 236.295 330.348 236.135C334.305 235.798 339.232 235.378 342.002 235.345C344.014 235.334 345.719 236.525 346.192 238.275C346.971 241.158 346.903 246.612 346.754 252.425C346.708 254.308 344.994 255.831 342.926 255.831ZM325.513 237.676C324.92 237.715 324.377 237.98 324.024 238.398C323.733 238.744 323.6 239.166 323.644 239.591L324.959 252.145C325.101 253.494 326.379 254.522 327.933 254.538L342.898 254.682C342.906 254.682 342.917 254.682 342.928 254.682C344.379 254.682 345.579 253.66 345.612 252.393C345.758 246.669 345.828 241.305 345.089 238.571C344.758 237.345 343.482 236.494 342.022 236.489C339.293 236.525 334.39 236.94 330.45 237.277C328.562 237.437 326.782 237.588 325.513 237.676Z" fill="white"/>
<path opacity="0.6" d="M327.124 238.972C330.267 238.757 337.1 238.063 340.339 238.022C341.712 238.004 342.918 238.834 343.239 240.024C343.865 242.338 343.782 246.945 343.673 251.2C343.64 252.474 342.471 253.492 341.042 253.478L329.083 253.365C327.612 253.351 326.391 252.347 326.255 251.042L325.204 241.009C325.097 239.97 325.959 239.05 327.124 238.972Z" fill="white"/>
<g opacity="0.6">
<path opacity="0.6" d="M356.07 247.494C356.504 249.138 357.996 250.276 359.695 250.263L498.146 249.083C499.713 249.07 500.965 247.779 500.93 246.212C500.897 244.688 499.656 243.471 498.135 243.463L359.68 242.83C357.235 242.819 355.447 245.13 356.07 247.494Z" fill="white"/>
</g>
<path d="M327.762 240.939C328.874 240.287 330.304 240.676 330.93 241.801L333.882 247.092C334.178 247.621 334.95 247.588 335.2 247.035L342.521 230.737C342.886 229.925 344.097 230.199 344.084 231.09C344.009 236.076 342.687 245.551 334.72 253.483C334.72 253.483 330.33 251.775 326.795 244.014C326.285 242.894 326.701 241.563 327.762 240.939Z" fill="#47749E"/>
<path d="M342.387 224.345C342.374 224.345 342.361 224.345 342.345 224.345L327.381 224.2C325.243 224.178 323.479 222.708 323.275 220.779L321.96 208.225C321.883 207.487 322.111 206.758 322.603 206.174C323.155 205.518 323.989 205.106 324.893 205.045C326.153 204.959 327.928 204.808 329.809 204.649C333.766 204.312 338.692 203.891 341.463 203.858C343.475 203.848 345.18 205.038 345.653 206.789C346.432 209.672 346.364 215.126 346.215 220.939C346.169 222.824 344.455 224.345 342.387 224.345ZM324.974 206.189C324.381 206.229 323.838 206.494 323.485 206.912C323.194 207.258 323.061 207.68 323.105 208.105L324.42 220.659C324.562 222.007 325.84 223.036 327.394 223.051L342.359 223.196C342.367 223.196 342.378 223.196 342.389 223.196C343.84 223.196 345.04 222.174 345.073 220.906C345.219 215.183 345.289 209.818 344.549 207.085C344.219 205.859 342.943 205.008 341.483 205.003C338.754 205.038 333.851 205.454 329.911 205.791C328.023 205.951 326.243 206.102 324.974 206.189Z" fill="white"/>
<path opacity="0.6" d="M326.585 207.484C329.728 207.27 336.561 206.576 339.8 206.534C341.172 206.517 342.378 207.346 342.7 208.537C343.326 210.851 343.243 215.458 343.134 219.713C343.101 220.986 341.932 222.004 340.503 221.991L328.544 221.877C327.073 221.864 325.852 220.86 325.716 219.555L324.665 209.522C324.558 208.482 325.42 207.563 326.585 207.484Z" fill="white"/>
<g opacity="0.6">
<path opacity="0.6" d="M355.531 216.007C355.965 217.651 357.457 218.789 359.156 218.776L497.607 217.596C499.174 217.583 500.426 216.291 500.391 214.724C500.358 213.201 499.117 211.984 497.594 211.975L359.138 211.343C356.696 211.332 354.908 213.643 355.531 216.007Z" fill="white"/>
</g>
<path d="M327.219 209.455C328.331 208.802 329.761 209.192 330.387 210.317L333.339 215.607C333.635 216.137 334.407 216.104 334.657 215.55L341.978 199.253C342.343 198.441 343.554 198.715 343.541 199.605C343.466 204.591 342.144 214.066 334.177 221.998C334.177 221.998 329.787 220.291 326.252 212.53C325.742 211.407 326.158 210.076 327.219 209.455Z" fill="#47749E"/>
<path d="M340.938 192.497C340.925 192.497 340.912 192.497 340.896 192.497L325.932 192.353C323.794 192.333 322.03 190.86 321.826 188.932L320.511 176.377C320.434 175.64 320.662 174.911 321.154 174.326C321.706 173.67 322.54 173.258 323.443 173.197C324.704 173.112 326.479 172.961 328.359 172.801C332.317 172.464 337.243 172.044 340.014 172.011C342.026 172 343.731 173.191 344.203 174.941C344.983 177.824 344.915 183.278 344.766 189.091C344.722 190.976 343.006 192.497 340.938 192.497ZM323.524 174.342C322.931 174.381 322.389 174.646 322.036 175.064C321.745 175.41 321.612 175.832 321.655 176.257L322.971 188.811C323.113 190.16 324.391 191.188 325.945 191.204L340.909 191.348C340.918 191.348 340.929 191.348 340.94 191.348C342.391 191.348 343.591 190.326 343.623 189.059C343.77 183.335 343.84 177.971 343.1 175.237C342.77 174.011 341.494 173.16 340.034 173.156C337.305 173.191 332.402 173.606 328.462 173.943C326.576 174.103 324.796 174.254 323.524 174.342Z" fill="white"/>
<path opacity="0.6" d="M325.136 175.637C328.279 175.422 335.112 174.728 338.351 174.687C339.724 174.669 340.93 175.499 341.251 176.689C341.877 179.003 341.794 183.61 341.685 187.865C341.652 189.139 340.483 190.157 339.054 190.143L327.095 190.03C325.624 190.016 324.403 189.012 324.267 187.707L323.216 177.674C323.107 176.635 323.971 175.715 325.136 175.637Z" fill="white"/>
<g opacity="0.6">
<path opacity="0.6" d="M354.082 184.159C354.515 185.803 356.008 186.941 357.706 186.928L496.157 185.748C497.724 185.735 498.976 184.444 498.941 182.877C498.909 181.353 497.668 180.136 496.144 180.128L357.689 179.495C355.249 179.484 353.458 181.795 354.082 184.159Z" fill="white"/>
</g>
<path d="M325.772 177.607C326.883 176.955 328.313 177.344 328.939 178.469L331.891 183.759C332.187 184.289 332.959 184.256 333.209 183.703L340.53 167.405C340.896 166.593 342.106 166.867 342.093 167.758C342.018 172.744 340.694 182.219 332.73 190.15C332.73 190.15 328.339 188.443 324.804 180.682C324.292 179.559 324.708 178.229 325.772 177.607Z" fill="#47749E"/>
<path d="M342.926 287.903C342.913 287.903 342.9 287.903 342.885 287.903L327.92 287.758C325.782 287.738 324.018 286.265 323.814 284.337L322.499 271.783C322.422 271.045 322.65 270.316 323.142 269.732C323.694 269.075 324.528 268.664 325.432 268.603C326.692 268.517 328.468 268.366 330.348 268.204C334.305 267.867 339.232 267.447 342.002 267.414C342.022 267.414 342.042 267.414 342.064 267.414C344.031 267.414 345.725 268.613 346.194 270.345C346.973 273.227 346.905 278.681 346.756 284.495C346.708 286.379 344.994 287.903 342.926 287.903ZM325.513 269.747C324.92 269.787 324.377 270.051 324.024 270.469C323.733 270.815 323.6 271.238 323.644 271.662L324.959 284.217C325.101 285.565 326.379 286.594 327.933 286.609L342.898 286.753C342.906 286.753 342.917 286.753 342.928 286.753C344.379 286.753 345.579 285.731 345.612 284.464C345.758 278.741 345.828 273.376 345.089 270.642C344.758 269.419 343.465 268.537 342.022 268.561C339.293 268.596 334.39 269.012 330.45 269.349C328.562 269.509 326.782 269.66 325.513 269.747Z" fill="white"/>
<path opacity="0.6" d="M327.124 271.044C330.267 270.829 337.1 270.136 340.339 270.094C341.712 270.077 342.918 270.906 343.239 272.097C343.865 274.41 343.782 279.017 343.673 283.272C343.64 284.546 342.471 285.564 341.042 285.551L329.083 285.437C327.612 285.424 326.391 284.419 326.255 283.115L325.204 273.082C325.097 272.042 325.959 271.123 327.124 271.044Z" fill="white"/>
<g opacity="0.6">
<path opacity="0.6" d="M356.07 279.565C356.504 281.208 357.996 282.346 359.695 282.333L498.146 281.154C499.713 281.14 500.965 279.849 500.93 278.282C500.897 276.759 499.656 275.542 498.135 275.533L359.68 274.9C357.235 274.889 355.447 277.201 356.07 279.565Z" fill="white"/>
</g>
<path d="M327.762 273.01C328.874 272.358 330.304 272.748 330.93 273.873L333.882 279.163C334.178 279.692 334.95 279.66 335.2 279.106L342.521 262.809C342.886 261.997 344.097 262.27 344.084 263.161C344.009 268.147 342.687 277.622 334.72 285.554C334.72 285.554 330.33 283.847 326.795 276.085C326.285 274.965 326.701 273.634 327.762 273.01Z" fill="#47749E"/>
<path d="M342.926 319.973C342.913 319.973 342.9 319.973 342.885 319.973L327.92 319.828C325.782 319.809 324.018 318.338 323.814 316.407L322.499 303.853C322.422 303.115 322.65 302.387 323.145 301.8C323.696 301.143 324.53 300.732 325.434 300.671C326.695 300.585 328.47 300.434 330.35 300.275C334.307 299.937 339.234 299.517 342.005 299.484C342.024 299.484 342.044 299.484 342.066 299.484C344.034 299.484 345.728 300.684 346.196 302.415C346.975 305.298 346.907 310.752 346.759 316.565C346.708 318.45 344.994 319.973 342.926 319.973ZM325.513 301.818C324.92 301.857 324.377 302.122 324.024 302.54C323.733 302.886 323.6 303.308 323.644 303.733L324.959 316.287C325.101 317.635 326.379 318.664 327.931 318.679L342.895 318.824C342.904 318.824 342.915 318.824 342.926 318.824C344.377 318.824 345.577 317.802 345.609 316.534C345.756 310.811 345.826 305.446 345.086 302.713C344.756 301.489 343.462 300.603 342.02 300.631C339.291 300.666 334.388 301.082 330.448 301.419C328.562 301.579 326.782 301.73 325.513 301.818Z" fill="white"/>
<path opacity="0.6" d="M327.124 303.113C330.267 302.899 337.1 302.205 340.339 302.163C341.712 302.146 342.918 302.975 343.239 304.166C343.865 306.479 343.782 311.087 343.673 315.342C343.64 316.615 342.471 317.633 341.042 317.62L329.083 317.506C327.612 317.493 326.391 316.488 326.255 315.184L325.204 305.151C325.097 304.111 325.959 303.192 327.124 303.113Z" fill="white"/>
<g opacity="0.6">
<path opacity="0.6" d="M356.07 311.638C356.504 313.282 357.996 314.42 359.695 314.407L498.146 313.227C499.713 313.214 500.965 311.922 500.93 310.355C500.897 308.832 499.656 307.615 498.135 307.606L359.68 306.974C357.235 306.963 355.447 309.274 356.07 311.638Z" fill="white"/>
</g>
<path d="M327.762 305.081C328.874 304.428 330.304 304.818 330.93 305.943L333.882 311.233C334.178 311.763 334.95 311.73 335.2 311.176L342.521 294.879C342.886 294.067 344.097 294.341 344.084 295.231C344.009 300.217 342.687 309.692 334.72 317.624C334.72 317.624 330.33 315.917 326.795 308.156C326.285 307.035 326.701 305.704 327.762 305.081Z" fill="#47749E"/>
<path d="M342.926 352.045C342.913 352.045 342.9 352.045 342.885 352.045L327.92 351.901C325.782 351.881 324.018 350.41 323.814 348.48L322.499 335.925C322.422 335.188 322.65 334.459 323.145 333.872C323.696 333.216 324.53 332.804 325.434 332.743C326.695 332.658 328.47 332.507 330.35 332.347C334.307 332.01 339.234 331.589 342.005 331.557C342.024 331.557 342.044 331.557 342.066 331.557C344.034 331.557 345.728 332.756 346.196 334.487C346.975 337.37 346.907 342.824 346.759 348.637C346.708 350.524 344.994 352.045 342.926 352.045ZM325.513 333.89C324.92 333.929 324.377 334.194 324.024 334.612C323.733 334.958 323.6 335.38 323.644 335.805L324.959 348.359C325.101 349.708 326.379 350.736 327.931 350.752L342.895 350.896C342.904 350.896 342.915 350.896 342.926 350.896C344.377 350.896 345.577 349.874 345.609 348.607C345.756 342.883 345.826 337.519 345.086 334.785C344.756 333.561 343.462 332.673 342.02 332.704C339.291 332.739 334.388 333.154 330.448 333.491C328.562 333.651 326.782 333.802 325.513 333.89Z" fill="white"/>
<path opacity="0.6" d="M327.124 335.186C330.267 334.971 337.1 334.277 340.339 334.236C341.712 334.218 342.918 335.048 343.239 336.238C343.865 338.552 343.782 343.159 343.673 347.414C343.64 348.688 342.471 349.705 341.042 349.692L329.083 349.578C327.612 349.565 326.391 348.561 326.255 347.256L325.204 337.223C325.097 336.184 325.959 335.264 327.124 335.186Z" fill="white"/>
<g opacity="0.6">
<path opacity="0.6" d="M356.07 343.707C356.504 345.351 357.996 346.489 359.695 346.476L498.146 345.296C499.713 345.283 500.965 343.992 500.93 342.425C500.897 340.901 499.656 339.684 498.135 339.676L359.68 339.043C357.235 339.032 355.447 341.343 356.07 343.707Z" fill="white"/>
</g>
<path d="M327.762 337.154C328.874 336.502 330.304 336.891 330.93 338.016L333.882 343.306C334.178 343.836 334.95 343.803 335.2 343.249L342.521 326.952C342.886 326.14 344.097 326.414 344.084 327.305C344.009 332.291 342.687 341.765 334.72 349.697C334.72 349.697 330.33 347.99 326.795 340.229C326.285 339.106 326.701 337.775 327.762 337.154Z" fill="#47749E"/>
<path d="M414.929 6.40801C407.35 1.13542 400.76 1.24048 396.12 2.60842C391.887 3.85817 389.144 7.94229 389.547 12.3372L391.547 34.1761L415.356 36.2882C415.356 36.2904 429.793 16.7496 414.929 6.40801ZM404.459 24.0271C401.18 24.0271 398.523 21.37 398.523 18.0913C398.523 14.8126 401.18 12.1555 404.459 12.1555C407.737 12.1555 410.394 14.8126 410.394 18.0913C410.394 21.37 407.737 24.0271 404.459 24.0271Z" fill="#343A40"/>
<path d="M393.926 24.9902C393.633 24.9902 393.381 24.767 393.355 24.4672L393.035 20.9893C393.007 20.6741 393.239 20.394 393.554 20.3655C393.876 20.3349 394.15 20.5691 394.178 20.8864L394.498 24.3643C394.526 24.6795 394.294 24.9596 393.979 24.9881C393.961 24.9903 393.942 24.9902 393.926 24.9902ZM393.3 18.1746C393.007 18.1746 392.755 17.9514 392.729 17.6515L392.486 15.0119C392.103 10.825 394.736 6.92907 398.748 5.74498C401.589 4.90671 404.517 4.78633 407.45 5.38822C407.761 5.45169 407.962 5.75592 407.897 6.06672C407.833 6.37751 407.531 6.57669 407.218 6.51322C404.471 5.95072 401.731 6.06234 399.072 6.84809C395.583 7.87678 393.294 11.2671 393.629 14.9091L393.872 17.5487C393.9 17.8638 393.668 18.144 393.353 18.1724C393.335 18.1746 393.318 18.1746 393.3 18.1746Z" fill="#74767B"/>
<path d="M359.047 48.2904V37.3097C359.047 33.5189 362.188 30.4831 365.976 30.6145L441.677 33.2081C445.037 33.3241 447.757 35.9746 447.959 39.3299L448.591 49.8794L359.047 48.2904Z" fill="#343A40"/>
<path d="M387.273 34.7514H384.019C383.701 34.7514 383.445 34.4953 383.445 34.1779C383.445 33.8606 383.704 33.6045 384.019 33.6045H387.273C387.591 33.6045 387.847 33.8606 387.847 34.1779C387.849 34.4931 387.591 34.7514 387.273 34.7514Z" fill="#74767B"/>
<path d="M363.148 44.8415C362.83 44.8415 362.574 44.5855 362.574 44.2681V39.8272C362.574 36.3953 365.367 33.6025 368.799 33.6025H380.767C381.084 33.6025 381.34 33.8586 381.34 34.176C381.34 34.4933 381.082 34.7494 380.767 34.7494H368.799C366.002 34.7494 363.723 37.0257 363.723 39.825V44.2659C363.723 44.5855 363.465 44.8415 363.148 44.8415Z" fill="#74767B"/>
<path d="M328.206 51.0615C328.388 47.2598 331.524 44.27 335.33 44.27L467.707 44.2656C472.468 44.2656 476.537 47.6909 477.349 52.3813L477.46 53.0292C478.349 58.1661 474.394 62.8652 469.18 62.8652H333.369C330.248 62.8652 327.762 60.2563 327.913 57.1396L328.206 51.0615Z" fill="#343A40"/>
<path d="M499.159 86.6841L489.936 80.048L472.113 67.2266L449.911 97.5489L417.753 141.465C417.558 141.73 417.536 142.078 417.698 142.36C417.858 142.641 418.173 142.805 418.508 142.783L444.877 140.992C445.278 140.966 445.637 141.211 445.744 141.586L452.732 165.946C452.82 166.25 453.08 166.473 453.4 166.521C453.722 166.57 454.048 166.432 454.238 166.169L487.436 120.388L489.708 117.254L507.52 92.6943L499.159 86.6841Z" fill="#F8700D"/>
<path d="M554.609 142.152L527.949 99.2317L508.134 67.3379L490.023 78.822L480.454 84.8891L471.664 90.4572L487.725 116.05L489.119 118.276L519.106 166.053C519.273 166.318 519.577 166.458 519.888 166.412C520.199 166.366 520.461 166.143 520.562 165.838L528.658 141.666C528.78 141.299 529.135 141.062 529.509 141.097L553.85 143.415C554.154 143.443 554.45 143.29 554.609 143.021C554.773 142.754 554.771 142.415 554.609 142.152Z" fill="#F8700D"/>
<path d="M546.794 75.7286C546.109 75.0216 546.109 73.8901 546.794 73.1853L554.216 65.5401C554.61 65.1331 554.792 64.5574 554.704 63.9905C554.617 63.4237 554.269 62.9312 553.77 62.6664L544.378 57.6608C543.511 57.199 543.167 56.1178 543.603 55.2357L548.35 45.6361C548.604 45.1239 548.602 44.5198 548.346 44.0033C548.09 43.489 547.611 43.1256 547.052 43.0272L536.571 41.1536C535.603 40.9807 534.945 40.0549 535.091 39.0722L536.689 28.4022C536.774 27.8332 536.586 27.2532 536.186 26.8395C535.783 26.4258 535.214 26.2267 534.651 26.3033L524.071 27.7653C523.095 27.8988 522.182 27.216 522.02 26.2288L520.267 15.4823C520.173 14.9089 519.816 14.4098 519.304 14.1363C518.792 13.8627 518.186 13.8495 517.671 14.0991L508.01 18.8004C507.12 19.2337 506.036 18.8617 505.576 17.9621L500.578 8.16986C500.31 7.64676 499.814 7.27686 499.24 7.17399C498.665 7.07112 498.082 7.24622 497.669 7.64894L489.89 15.1868C489.172 15.8807 488.021 15.8588 487.303 15.1387L479.476 7.27249C479.058 6.85226 478.467 6.65089 477.887 6.72969C477.307 6.80848 476.804 7.16086 476.532 7.6774L471.448 17.358C470.98 18.2488 469.872 18.5881 468.962 18.1175L459.021 12.9894C458.489 12.7136 457.861 12.7048 457.331 12.9631C456.801 13.2214 456.429 13.716 456.333 14.296L454.51 25.1892C454.343 26.1894 453.391 26.8592 452.376 26.6929L441.272 24.8609C440.677 24.7624 440.075 24.9485 439.648 25.3621C439.224 25.7758 439.025 26.3667 439.114 26.9555L440.804 37.9734C440.959 38.9846 440.263 39.9236 439.239 40.079L428.075 41.7752C427.477 41.8649 426.963 42.2305 426.687 42.7601C426.411 43.2876 426.409 43.9158 426.68 44.452L431.762 54.4675C432.229 55.3868 431.861 56.4986 430.935 56.9648L420.843 62.0448C420.302 62.3162 419.928 62.824 419.832 63.4149C419.738 64.0037 419.933 64.6034 420.359 65.0302L428.35 73.0036C429.083 73.7346 429.083 74.9078 428.35 75.6366L420.359 83.5904C419.933 84.015 419.738 84.6147 419.832 85.2056C419.928 85.7944 420.302 86.3044 420.843 86.578L430.935 91.682C431.861 92.1504 432.226 93.2623 431.762 94.1793L426.68 104.184C426.409 104.718 426.411 105.346 426.687 105.876C426.963 106.403 427.477 106.771 428.075 106.863L439.239 108.585C440.261 108.743 440.957 109.682 440.804 110.693L439.114 121.707C439.025 122.295 439.222 122.886 439.648 123.3C440.075 123.714 440.677 123.902 441.272 123.806L452.376 122C453.391 121.836 454.343 122.508 454.51 123.508L456.333 134.406C456.429 134.986 456.801 135.482 457.331 135.741C457.863 136.001 458.489 135.992 459.021 135.719L468.962 130.612C469.872 130.144 470.98 130.486 471.448 131.379L476.532 141.072C476.804 141.589 477.307 141.941 477.887 142.022C478.469 142.103 479.058 141.904 479.476 141.484L487.303 133.635C488.021 132.915 489.172 132.897 489.89 133.594L497.669 141.149C498.082 141.552 498.665 141.729 499.24 141.626C499.814 141.523 500.31 141.155 500.578 140.632L505.576 130.853C506.036 129.956 507.12 129.586 508.01 130.022L517.671 134.747C518.186 134.999 518.792 134.986 519.304 134.714C519.814 134.443 520.173 133.944 520.267 133.37L522.02 122.628C522.18 121.641 523.095 120.96 524.071 121.096L534.651 122.584C535.214 122.663 535.785 122.466 536.186 122.052C536.586 121.639 536.774 121.059 536.689 120.49L535.091 109.815C534.945 108.835 535.603 107.909 536.571 107.738L547.052 105.889C547.611 105.79 548.09 105.429 548.346 104.915C548.602 104.401 548.604 103.794 548.35 103.282L543.603 93.6715C543.167 92.7873 543.511 91.7061 544.378 91.2487L553.772 86.2628C554.271 85.998 554.619 85.5077 554.706 84.9408C554.794 84.3739 554.612 83.7983 554.218 83.3912L546.794 75.7286Z" fill="#F7E057"/>
<path d="M488.601 124.259C460.89 124.631 438.012 102.234 438.012 74.3277C438.012 46.4218 460.89 24.0795 488.601 24.5151C515.87 24.944 537.738 47.3389 537.738 74.4438C537.738 101.549 515.87 123.893 488.601 124.259Z" fill="#F8700D"/>
<path d="M532.831 74.4385C532.831 98.8754 513.172 118.92 488.602 119.213C463.675 119.51 443.199 99.4204 443.199 74.3335C443.199 49.2487 463.675 29.2046 488.602 29.5613C513.172 29.9115 532.831 50.0016 532.831 74.4385Z" fill="#F3D33F"/>
<path d="M411.632 200.421C411.632 200.421 407.148 202.603 406.322 205.109C405.661 207.121 400.702 207.379 400.211 211.334C399.958 213.376 398.447 215.011 396.414 215.322C391.349 216.099 383.542 218.727 382.295 227.521C381.34 234.234 384.764 236.78 388.355 237.66C390.993 238.307 392.746 240.873 392.212 243.534C391.7 246.088 392.463 249.041 396.889 251.376C406.804 256.609 416.708 238.981 416.708 238.981L418.737 208.202L411.632 200.421Z" fill="#343A40"/>
<path d="M465.595 193.125C465.595 193.125 445.796 224.441 422.254 230.488C422.254 230.488 426.841 243.555 430.383 245.05C430.383 245.05 459.346 220.882 466.79 197.575L465.595 193.125Z" fill="url(#paint0_linear_943_65443)"/>
<path d="M370.877 393.418L370.236 398.693C370.113 399.693 369.325 400.485 368.325 400.599C366.633 400.792 363.921 400.991 361.264 400.708C360.1 400.586 359.343 399.406 359.697 398.288C360.345 396.252 361.529 393.195 363.236 391.396H369.089C370.17 391.398 371.009 392.343 370.877 393.418Z" fill="#7C7D81"/>
<path d="M416.71 331.624L417.697 337.433C417.697 337.433 414.39 370.935 413.801 384.335C413.709 386.436 414.252 388.513 415.355 390.303L421.107 399.642L406.491 391.017L406.2 389.233L408.592 385.943L405.458 348.414C405.274 346.21 405.729 343.997 406.769 342.044L409.791 336.365L416.71 331.624Z" fill="url(#paint1_linear_943_65443)"/>
<path d="M422.071 400.997H417.407C416.534 400.997 415.711 400.597 415.179 399.905C413.726 398.016 410.712 394.331 409.272 394.234C407.332 394.105 407.58 400.999 407.58 400.999H406.492L405.115 392.433C404.769 390.277 405.84 388.143 407.777 387.132C407.777 387.132 408.221 390.411 410.624 391.859C413.027 393.308 420.405 398.502 420.405 398.502C420.405 398.502 421.309 398.373 422.301 398.553C423.772 398.817 423.566 400.997 422.071 400.997Z" fill="#7C7D81"/>
<path d="M396.69 334.385C396.69 334.385 377.313 371.14 374.234 379.531C371.154 387.923 370.075 394.925 370.034 395.586C369.97 396.621 368.681 397.615 365.129 397.615C363.297 397.615 362.397 396.879 361.959 396.168C361.585 395.562 361.565 394.802 361.881 394.163C363.001 391.895 366.558 384.646 367.875 381.359C369.449 377.433 372.831 359.645 374.687 353.46C376.543 347.274 378.64 340.566 386.72 334.385C386.72 334.385 392.266 328.953 396.69 334.385Z" fill="url(#paint2_linear_943_65443)"/>
<path d="M408.932 274.16C413.931 252.98 401.27 241.001 401.27 241.001C409.258 233.332 423.815 229.843 423.815 229.843C423.815 229.843 437.705 239.998 436.057 247.946C435.092 252.603 426.293 275.849 426.293 275.849C426.293 275.849 418.158 279.701 408.932 274.16Z" fill="#F8700D"/>
<path d="M397.846 284.645C399.879 278.517 408.928 274.159 408.928 274.159C418.153 279.701 426.288 275.851 426.288 275.851C426.288 275.851 428.114 282.824 426.853 289.305C425.592 295.786 417.693 337.435 417.693 337.435C405.246 339.956 386.102 334.898 386.102 334.898C394.031 320.82 395.811 290.771 397.846 284.645Z" fill="#7C7D81"/>
<path d="M414.733 215.847L410.669 234.101C410.279 235.71 411.746 235.445 413.372 235.138C416.033 234.637 419.465 233.602 420.612 231.531C420.728 231.321 420.787 231.083 420.82 230.844L422.567 218.187C422.705 217.182 422.162 216.208 421.236 215.797L417.868 214.304C416.57 213.728 415.068 214.468 414.733 215.847Z" fill="url(#paint3_linear_943_65443)"/>
<path d="M401.269 241.002C401.269 241.002 362.047 279.83 418.929 264.331C418.929 264.331 419.577 259.424 418.732 259.507C400.286 261.348 392.571 265.57 407.566 251.031C408.095 250.516 407.931 248.577 407.592 247.92C406.552 245.927 404.177 241.967 401.269 241.002Z" fill="url(#paint4_linear_943_65443)"/>
<path d="M422.518 199.208C422.518 199.208 426.845 202.136 428.704 209.593C430.562 217.05 427.541 219.727 424.444 219.563C421.347 219.399 416.858 218.442 412.967 213.091C409.077 207.742 416.847 195.629 422.518 199.208Z" fill="url(#paint5_linear_943_65443)"/>
<path d="M416.885 210.083C416.885 210.083 415.301 199.398 424.171 201.031L425.966 202.898C425.966 202.898 430.309 198.006 425.502 194.309C420.696 190.613 414.027 191.558 410.337 198.291C406.646 205.023 405.307 209.751 408.4 213.933C411.492 218.116 413.819 214.529 413.819 214.529C413.819 214.529 412.401 210.909 413.578 209.357C414.756 207.805 416.272 210.261 416.272 210.261L416.885 210.083Z" fill="#343A40"/>
<path d="M415.671 210.998C415.671 210.998 414.887 205.5 412.081 207.072C409.273 208.643 413.092 212.208 414.625 213.421L415.671 210.998Z" fill="url(#paint6_linear_943_65443)"/>
<path d="M465.45 199.571C465.509 200.216 463.108 200.663 462.344 197.909C462.554 196.714 462.928 191.479 463.843 190.665C468.726 186.333 477.433 181.459 477.433 181.459C478.407 182.945 477.128 183.926 477.128 183.926L472.782 186.859C473.235 188.36 473.896 189.689 473.972 191.402C474.029 192.7 473.55 193.972 472.688 194.957C471.823 195.946 470.659 197.222 469.608 198.189C467.623 200.021 465.45 199.571 465.45 199.571Z" fill="url(#paint7_linear_943_65443)"/>
<path d="M467.81 197.436L467.147 197.163C467.235 196.948 469.321 191.879 470.33 190.826C470.713 190.426 470.899 190.084 470.881 189.809C470.872 189.66 470.798 189.511 470.658 189.362L467.141 191.242L465.587 193.674L464.98 193.286L466.635 190.695L470.754 188.493L470.94 188.644C471.356 188.986 471.573 189.351 471.597 189.763C471.628 190.255 471.382 190.765 470.848 191.323C470.089 192.118 468.397 196.005 467.81 197.436Z" fill="url(#paint8_linear_943_65443)"/>
<path d="M416.631 272.338L426.124 239.188C426.231 238.811 426.553 238.538 426.942 238.492C428.663 238.29 433.646 237.728 439.4 237.242C446.332 236.656 454.38 236.181 459.189 236.585C459.871 236.642 460.285 237.367 459.981 237.982C457.245 243.515 445.995 266.024 440.361 273.397C440.175 273.642 439.886 273.785 439.578 273.783L417.553 273.577C416.914 273.568 416.456 272.955 416.631 272.338Z" fill="#25221D"/>
<path d="M440.383 234.369L447.264 233.222C447.63 233.161 447.932 233.511 447.814 233.863L447.133 235.927C447.074 236.107 446.916 236.238 446.73 236.262L440.107 237.146C439.764 237.192 439.481 236.881 439.56 236.544L439.983 234.743C440.029 234.548 440.186 234.402 440.383 234.369Z" fill="#7C7D81"/>
<path d="M435.231 240.195L435.798 237.243C435.855 236.947 436.1 236.722 436.4 236.694L450.3 235.284C450.769 235.236 451.143 235.665 451.034 236.122L450.149 239.801C450.079 240.097 449.823 240.309 449.519 240.325L435.936 241.007C435.494 241.027 435.148 240.629 435.231 240.195Z" fill="#7C7D81"/>
<path d="M418.923 264.33C418.923 264.33 417.601 258.894 418.135 256.963C418.669 255.035 419.702 252.553 423.147 253.105C426.592 253.656 430.654 255.107 430.654 255.107C430.654 255.107 430.449 257.62 427.831 256.81L429.455 258.066C429.455 258.066 429.223 260.078 427.012 259.003L428.522 260.669C428.522 260.669 427.573 262.321 425.946 261.262C424.316 260.202 423.537 264.985 418.923 264.33Z" fill="url(#paint9_linear_943_65443)"/>
<path fill-rule="evenodd" clip-rule="evenodd" d="M474.799 95.9998C474.344 95.9998 473.891 95.859 473.508 95.5818C472.848 95.1022 472.505 94.2971 472.621 93.4875L474.665 79.1791L466.644 71.156C466.061 70.573 465.854 69.715 466.105 68.9297C466.356 68.1443 467.024 67.5657 467.836 67.4315L479.932 65.4142L486.03 53.2177C486.407 52.4676 487.232 51.9726 488.01 52.0012C488.849 52.0056 489.61 52.4852 489.977 53.2397L495.816 65.2338L508.184 67.4359C508.992 67.5789 509.652 68.1597 509.898 68.9407C510.145 69.7238 509.936 70.5774 509.355 71.156L501.331 79.1791L503.377 93.4875C503.492 94.3015 503.149 95.1111 502.48 95.5884C501.813 96.068 500.933 96.1318 500.205 95.7622L488.153 89.6596L475.774 95.771C475.466 95.925 475.131 95.9998 474.799 95.9998Z" fill="white"/>
<defs>
<linearGradient id="paint0_linear_943_65443" x1="481.54" y1="173.507" x2="497.663" y2="154.204" gradientUnits="userSpaceOnUse">
<stop stop-color="white"/>
<stop offset="1" stop-color="#EFEFF4"/>
</linearGradient>
<linearGradient id="paint1_linear_943_65443" x1="416.165" y1="380.655" x2="420.026" y2="397.005" gradientUnits="userSpaceOnUse">
<stop stop-color="white"/>
<stop offset="1" stop-color="#EFEFF4"/>
</linearGradient>
<linearGradient id="paint2_linear_943_65443" x1="363.352" y1="404.393" x2="357.675" y2="419.835" gradientUnits="userSpaceOnUse">
<stop stop-color="white"/>
<stop offset="1" stop-color="#EFEFF4"/>
</linearGradient>
<linearGradient id="paint3_linear_943_65443" x1="412.873" y1="238.118" x2="422.864" y2="208.143" gradientUnits="userSpaceOnUse">
<stop stop-color="white"/>
<stop offset="1" stop-color="#EFEFF4"/>
</linearGradient>
<linearGradient id="paint4_linear_943_65443" x1="436.389" y1="249.023" x2="467.034" y2="244.256" gradientUnits="userSpaceOnUse">
<stop stop-color="white"/>
<stop offset="1" stop-color="#EFEFF4"/>
</linearGradient>
<linearGradient id="paint5_linear_943_65443" x1="409.196" y1="193.215" x2="391.937" y2="168.235" gradientUnits="userSpaceOnUse">
<stop stop-color="white"/>
<stop offset="1" stop-color="#EFEFF4"/>
</linearGradient>
<linearGradient id="paint6_linear_943_65443" x1="404.445" y1="196.493" x2="387.186" y2="171.513" gradientUnits="userSpaceOnUse">
<stop stop-color="white"/>
<stop offset="1" stop-color="#EFEFF4"/>
</linearGradient>
<linearGradient id="paint7_linear_943_65443" x1="483.214" y1="174.91" x2="499.337" y2="155.608" gradientUnits="userSpaceOnUse">
<stop stop-color="white"/>
<stop offset="1" stop-color="#EFEFF4"/>
</linearGradient>
<linearGradient id="paint8_linear_943_65443" x1="468.291" y1="138.967" x2="468.291" y2="180.467" gradientUnits="userSpaceOnUse">
<stop stop-color="white"/>
<stop offset="1" stop-color="#EFEFF4"/>
</linearGradient>
<linearGradient id="paint9_linear_943_65443" x1="437.491" y1="256.147" x2="468.147" y2="251.378" gradientUnits="userSpaceOnUse">
<stop stop-color="white"/>
<stop offset="1" stop-color="#EFEFF4"/>
</linearGradient>
</defs>
</svg>
