<svg width="69" height="76" viewBox="0 0 69 76" fill="none" xmlns="http://www.w3.org/2000/svg">
<path fill-rule="evenodd" clip-rule="evenodd" d="M2.15034 2.13894L0 4.27702V34.8504V65.4238L2.15034 67.5618C4.20257 69.6041 4.7938 69.7008 15.2153 69.7008H26.1316L24.2335 66.2227L22.3355 62.7446L14.6713 62.7377L7.0072 62.7307V34.8504V6.97008H28.0288H49.0504V17.4086V27.8472L51.4592 28.3717C52.7844 28.661 54.361 29.0478 54.9628 29.2325C55.8036 29.4904 56.0576 26.637 56.0576 16.9225C56.0576 4.65776 55.9928 4.21254 53.9073 2.13894L51.7578 0H28.0288H4.2998L2.15034 2.13894ZM14.0144 20.9102V24.3953H28.0288H42.0432V20.9102V17.4252H28.0288H14.0144V20.9102ZM14.0144 34.8504V38.3354L19.9267 38.2997C25.5632 38.2657 26.0177 38.1028 29.6746 34.8147L33.5093 31.3654H23.7623H14.0144V34.8504ZM39.8535 36.4936C27.0461 42.3624 24.1468 57.8638 34.02 67.6847C39.5031 73.1388 49.11 74.6513 55.8062 71.1148C58.1554 69.8733 58.3683 69.9413 61.4532 72.9123L64.6581 76L66.8995 74.3751C69.8522 72.2344 69.7646 71.4616 66.1743 68.001C63.2952 65.2251 63.212 64.9751 64.398 62.6941C65.082 61.3768 65.8984 58.709 66.2111 56.7652C68.5269 42.3563 53.0454 30.4497 39.8535 36.4936ZM55.4892 45.1461C61.5986 50.6463 60.4923 60.0664 53.2188 64.4776C47.4107 68.001 39.7887 65.5972 36.5688 59.2282L35.0369 56.1963L42.0432 55.9436L49.0504 55.6901V48.7766V41.864L51.4574 42.7736C52.7818 43.2746 54.5957 44.3419 55.4892 45.1461ZM14.0144 48.7906C14.0144 52.2573 14.0319 52.2756 17.4111 52.2756C20.6423 52.2756 20.8517 52.1057 21.6978 48.7906L22.5868 45.3055H18.3011H14.0144V48.7906Z" fill="#E6EDF0"/>
</svg>
