<svg width="16" height="18" viewBox="0 0 16 18" fill="none" xmlns="http://www.w3.org/2000/svg">
<path fill-rule="evenodd" clip-rule="evenodd" d="M5.52426 2.86088C6.23828 2.98122 6.46255 2.90906 7.16333 2.3335C7.6097 1.96687 8.03135 1.66699 8.09989 1.66699C8.16842 1.66699 8.63714 1.96925 9.14163 2.33869C9.94761 2.92915 10.1717 2.99354 10.9943 2.8706C12.084 2.7077 12.3187 2.89502 12.5462 4.10813C12.6712 4.77421 12.8486 4.99826 13.4873 5.29727C14.3885 5.719 14.5727 6.30233 14.0923 7.21536C13.799 7.77298 13.8149 7.8877 14.2998 8.71193C14.9347 9.7911 14.8228 10.1733 13.7457 10.6026C13.0384 10.8845 12.9058 11.0474 12.7883 11.7796C12.608 12.9018 12.2567 13.1641 11.1661 12.9904C10.3935 12.8672 10.1864 12.9322 9.46567 13.524C9.01432 13.8947 8.56382 14.1979 8.46492 14.1979C8.3658 14.1979 7.90555 13.8943 7.44204 13.5233C6.68877 12.9204 6.49812 12.864 5.64464 12.9914C4.53457 13.1574 4.30249 12.975 4.07432 11.7587C3.94917 11.0917 3.76437 10.8603 3.07877 10.5118C2.14373 10.0367 2.0303 9.60529 2.56798 8.56977C2.86448 7.99854 2.86448 7.86631 2.56798 7.29508C2.0303 6.25955 2.14373 5.8281 3.07877 5.35301C3.76437 5.00452 3.94917 4.77313 4.07432 4.10619C4.2975 2.91576 4.55192 2.69733 5.52426 2.86088ZM6.25015 4.20702C6.77615 4.29505 6.94137 4.24227 7.45763 3.82123C7.78646 3.55303 8.09708 3.33366 8.14757 3.33366C8.19806 3.33366 8.54335 3.55477 8.91501 3.82502C9.50876 4.25696 9.67382 4.30406 10.2799 4.21413C11.0826 4.09497 11.2555 4.23199 11.4231 5.11942C11.5152 5.60668 11.6459 5.77057 12.1164 5.98931C12.7803 6.29781 12.916 6.72453 12.5621 7.39244C12.346 7.80035 12.3577 7.88428 12.715 8.48722C13.1827 9.27666 13.1002 9.55624 12.3067 9.87028C11.7857 10.0765 11.688 10.1957 11.6014 10.7313C11.4687 11.5522 11.2098 11.7441 10.4064 11.617C9.83728 11.5269 9.68469 11.5745 9.15373 12.0074C8.82122 12.2786 8.48935 12.5003 8.41649 12.5003C8.34347 12.5003 8.00441 12.2783 7.66295 12.0069C7.10802 11.5658 6.96757 11.5245 6.33883 11.6178C5.52105 11.7392 5.35009 11.6058 5.18199 10.716C5.0898 10.2281 4.95367 10.0588 4.44859 9.8039C3.75976 9.45636 3.6762 9.14074 4.0723 8.38323C4.29072 7.96535 4.29072 7.86863 4.0723 7.45076C3.6762 6.69324 3.75976 6.37762 4.44859 6.03008C4.95367 5.77515 5.0898 5.60589 5.18199 5.118C5.34641 4.24716 5.53384 4.08738 6.25015 4.20702Z" fill="#F8700D"/>
<path fill-rule="evenodd" clip-rule="evenodd" d="M11.5916 13.7758C12.4838 13.9069 13.0282 13.5747 13.302 12.7318C13.4178 12.375 13.5332 12.083 13.5585 12.083C13.6187 12.083 15.9154 16.1441 15.9154 16.2508C15.9154 16.3287 14.7629 16.2145 13.8006 16.0412C13.4057 15.9701 13.2849 16.0741 12.758 16.9386C12.4301 17.4764 12.093 17.9163 12.0085 17.9163C11.924 17.9163 11.4561 17.1457 10.9686 16.2038L10.082 14.4914L10.4964 14.0835C10.8485 13.7369 11.0132 13.6907 11.5916 13.7758Z" fill="#F8700D"/>
<path fill-rule="evenodd" clip-rule="evenodd" d="M0.917969 16.1329C0.917969 16.033 1.41734 15.035 2.02788 13.9152C2.83471 12.435 3.18226 11.9437 3.30073 12.1158C3.39058 12.2462 3.46512 12.4883 3.46676 12.6537C3.46822 12.8193 3.67744 13.146 3.93168 13.3798C4.32589 13.7424 4.49812 13.7888 5.1021 13.6949C5.83676 13.5808 6.74875 13.9383 6.7513 14.3416C6.75367 14.7293 5.02756 17.9706 4.84804 17.9156C4.74544 17.8841 4.38585 17.4244 4.04887 16.8939L3.43596 15.9294L2.4959 16.0389C1.97886 16.0992 1.41242 16.1857 1.23691 16.2315C1.06158 16.277 0.917969 16.2328 0.917969 16.1329Z" fill="#F8700D"/>
<path fill-rule="evenodd" clip-rule="evenodd" d="M6.45954 10.6253C6.39917 10.6253 6.33908 10.6066 6.28833 10.5699C6.20083 10.5063 6.15533 10.3996 6.17079 10.2922L6.44175 8.39529L5.37833 7.33161C5.30103 7.25432 5.27362 7.14058 5.30687 7.03645C5.34012 6.93233 5.42878 6.85563 5.53641 6.83784L7.14 6.57039L7.94851 4.95343C7.99838 4.85398 8.10776 4.78836 8.21101 4.79215C8.32213 4.79273 8.42305 4.85631 8.47176 4.95635L9.24585 6.54647L10.8856 6.83842C10.9927 6.85738 11.0802 6.93437 11.1128 7.03791C11.1455 7.14174 11.1178 7.25491 11.0408 7.33161L9.97706 8.39529L10.2483 10.2922C10.2635 10.4001 10.218 10.5075 10.1293 10.5708C10.0409 10.6343 9.92427 10.6428 9.82773 10.5938L8.22997 9.78474L6.58875 10.595C6.54792 10.6154 6.50358 10.6253 6.45954 10.6253Z" fill="#F8700D"/>
</svg>
