<svg width="17" height="18" viewBox="0 0 17 18" fill="#25221D" xmlns="http://www.w3.org/2000/svg">
	<path d="M16.2925 1.40973C16.6831 1.80025 16.6831 2.43342 16.2925 2.82394L2.5447 16.5718C2.15417 16.9623 1.52101 16.9623 1.13049 16.5718L0.707162 16.1485C0.316637 15.7579 0.316638 15.1248 0.707162 14.7342L14.455 0.986403C14.8455 0.595879 15.4787 0.595879 15.8692 0.986404L16.2925 1.40973Z" />
	<path d="M15.8696 16.5718C15.479 16.9624 14.8459 16.9624 14.4554 16.5718L0.707515 2.824C0.31699 2.43347 0.316991 1.80031 0.707515 1.40978L1.13084 0.98646C1.52136 0.595936 2.15453 0.595936 2.54505 0.98646L16.2929 14.7343C16.6834 15.1248 16.6834 15.758 16.2929 16.1485L15.8696 16.5718Z" />
</svg>
