<svg width="40" height="40" viewBox="0 0 40 40" fill="none" xmlns="http://www.w3.org/2000/svg">
<path fill-rule="evenodd" clip-rule="evenodd" d="M37.5022 20.0004C37.5022 19.6689 37.3705 19.3509 37.1361 19.1165C36.9017 18.8821 36.5838 18.7504 36.2522 18.7504L6.76973 18.7504L14.6372 10.8854C14.872 10.6507 15.0038 10.3323 15.0038 10.0004C15.0038 9.66843 14.872 9.35009 14.6372 9.11537C14.4025 8.88065 14.0842 8.74879 13.7522 8.74879C13.4203 8.74879 13.1019 8.88065 12.8672 9.11537L2.86723 19.1154C2.75083 19.2315 2.65847 19.3694 2.59545 19.5213C2.53244 19.6732 2.5 19.836 2.5 20.0004C2.5 20.1648 2.53244 20.3276 2.59545 20.4795C2.65847 20.6313 2.75083 20.7693 2.86723 20.8854L12.8672 30.8854C12.9835 31.0016 13.1214 31.0938 13.2733 31.1567C13.4251 31.2196 13.5879 31.252 13.7522 31.252C14.0842 31.252 14.4025 31.1201 14.6372 30.8854C14.872 30.6507 15.0038 30.3323 15.0038 30.0004C15.0038 29.6684 14.872 29.3501 14.6372 29.1154L6.76973 21.2504L36.2522 21.2504C36.5838 21.2504 36.9017 21.1187 37.1361 20.8843C37.3705 20.6498 37.5022 20.3319 37.5022 20.0004Z" fill="#25221D"/>
</svg>
