<svg width="200" height="61" viewBox="0 0 200 61" fill="none" xmlns="http://www.w3.org/2000/svg">
<path d="M146.223 17.262C149.613 17.262 152.961 17.262 156.351 17.262C156.351 24.6838 156.351 32.1056 156.351 39.5275C156.393 39.5275 156.434 39.5275 156.476 39.5691C156.811 38.9437 157.146 38.36 157.439 37.7345C160.954 31.0632 164.47 24.3919 167.985 17.7206C168.194 17.3454 168.403 17.2203 168.78 17.262C171.793 17.262 174.806 17.262 177.82 17.262C177.987 17.262 178.196 17.262 178.406 17.262C178.406 24.517 178.406 31.7304 178.406 38.9437C178.447 38.9437 178.489 38.9854 178.531 38.9854C181.921 31.7304 185.353 24.517 188.742 17.3037C192.509 17.3037 196.234 17.3037 200 17.3037C199.749 17.8457 199.498 18.3461 199.247 18.8464C194.936 27.5608 190.584 36.3169 186.273 45.0313C183.888 49.868 181.502 54.663 179.117 59.4997C178.908 59.9166 178.698 60.0417 178.238 60.0417C175.099 60.0417 171.961 60.0417 168.864 60.0417C168.655 60.0417 168.487 60.0417 168.236 60.0417C168.236 52.6199 168.236 45.2398 168.236 37.9013C168.194 37.9013 168.152 37.8596 168.11 37.8596C168.027 37.9847 167.943 38.1515 167.859 38.2766C163.925 45.4065 159.992 52.4948 156.058 59.6247C155.932 59.8749 155.807 60.0834 155.472 60.0834C152.459 60.0834 149.445 60.0834 146.432 60.0834C146.349 60.0834 146.265 60.0834 146.139 60.0417C146.223 45.6984 146.223 31.5219 146.223 17.262ZM70.9772 59.9583C71.1446 59.9583 71.2701 60 71.3538 60C81.0211 60 90.6884 60 100.398 60C100.732 60 100.858 59.8749 100.9 59.583C101.276 57.7484 101.653 55.9555 102.072 54.1209C102.323 52.9951 102.574 51.8277 102.825 50.6185C96.4637 50.6185 90.1444 50.6185 83.8251 50.6185C83.8251 50.4934 83.8251 50.41 83.8251 50.3683C84.2854 48.1584 84.7876 45.9069 85.248 43.697C85.3317 43.2801 85.4991 43.155 85.9175 43.155C90.9395 43.155 96.0033 43.155 101.025 43.155C101.235 43.155 101.402 43.155 101.653 43.155C102.323 40.0278 102.992 36.9006 103.662 33.7735C98.1795 33.7735 92.8228 33.7735 87.4241 33.7735C87.4241 33.6484 87.4241 33.6067 87.4241 33.5233C87.8845 31.4385 88.3448 29.3537 88.7633 27.2689C88.847 26.7686 89.0981 26.6435 89.5585 26.6852C95.5011 26.6852 101.486 26.6852 107.428 26.6852C107.847 26.6852 107.972 26.5601 108.056 26.1432C108.516 23.8499 109.019 21.5566 109.521 19.2634C109.646 18.6379 109.814 17.9708 109.939 17.3037C99.9791 17.3037 90.0607 17.3037 80.1004 17.3037C77.0454 31.4802 74.0322 45.6984 70.9772 59.9583ZM121.155 33.7318C121.657 31.3134 122.159 28.9785 122.662 26.6018C129.065 26.6018 135.384 26.6018 141.703 26.6018C142.373 23.4746 143.042 20.3892 143.67 17.262C133.668 17.262 123.75 17.262 113.831 17.262C110.776 31.4802 107.763 45.6984 104.708 59.9583C108.349 59.9583 111.906 59.9583 115.505 59.9583C116.719 54.3294 117.891 48.7422 119.104 43.1133C124.545 43.1133 129.943 43.1133 135.384 43.1133C136.054 39.9861 136.723 36.8589 137.393 33.7318C131.994 33.7318 126.596 33.7318 121.155 33.7318ZM59.5104 60C60.0126 60 60.18 59.8749 60.3055 59.3746C61.6865 52.8284 63.0676 46.3238 64.4486 39.8193C64.6579 38.7769 64.909 37.6928 65.1182 36.6505C65.1601 36.4837 65.0345 36.1501 64.909 36.1084C64.7416 36.0667 64.4905 36.1918 64.3231 36.3169C64.1975 36.3586 64.1557 36.5254 64.072 36.6505C60.6403 41.3621 56.4135 45.2398 51.4333 48.2835C45.9092 51.7026 39.8828 53.9124 33.6054 55.4552C29.0437 56.581 24.3984 57.4149 19.6694 57.8318C15.4426 58.2071 11.2157 58.4573 7.03076 58.7074C4.93827 58.8325 2.80393 58.7908 0.711446 58.8325C0.292948 58.8325 0 58.9576 0 59.4163C0 59.8332 0.292948 59.9583 0.669596 60C0.836995 60 0.962544 60 1.12994 60C10.8391 60 20.5064 60 30.2155 60C40.0084 59.9583 49.7594 59.9583 59.5104 60ZM72.2327 0C58.1712 0 44.1515 0 30.09 0C24.524 0 18.9579 0 13.3501 0C12.9316 0 12.5968 0.0833912 12.5549 0.542043C12.5549 0.917304 12.7642 1.08409 13.3082 1.12578C17.0747 1.25087 20.7993 1.33426 24.524 1.50104C29.6715 1.79291 34.7771 2.37665 39.841 3.41904C44.6537 4.41974 49.3409 5.79569 53.6932 8.08895C60.2218 11.508 64.909 16.4698 67.0015 23.6414C67.0433 23.8499 67.2944 23.975 67.4618 24.1418C67.6292 23.9333 67.8385 23.7665 67.8803 23.558C69.2195 17.4705 70.5168 11.3829 71.8142 5.25365C72.1908 3.54413 72.5675 1.79291 72.9441 0.0416956C72.693 0 72.4419 0 72.2327 0ZM50.5127 16.9701C50.3453 16.9701 50.0942 17.0118 49.9268 17.1369C49.0061 17.8874 48.1272 18.763 47.1647 19.4302C43.9004 21.8068 40.2176 23.3495 36.4093 24.6421C26.9094 27.7693 17.1584 29.1869 7.19816 29.3537C6.61226 29.3537 6.31931 29.5622 6.36116 29.9375C6.36116 30.3127 6.65411 30.4795 7.19816 30.5212C9.66729 30.6463 12.0946 30.7297 14.5637 30.9382C19.4183 31.3134 24.1892 32.189 28.8345 33.4816C32.5173 34.524 36.1163 35.7748 39.4225 37.8179C41.3894 39.0271 43.1471 40.4448 44.3607 42.4461C44.5281 42.6963 44.57 43.1967 45.0303 43.0299C45.2396 42.9465 45.407 42.5712 45.4488 42.2794C46.9973 35.1077 48.5457 27.9361 50.0523 20.7644C50.3034 19.6386 50.5127 18.5129 50.7638 17.3037C50.6801 17.2203 50.5964 16.9701 50.5127 16.9701Z" fill="#0E2D52"/>
<path d="M189.955 55.1211C188.615 55.1211 187.527 56.2052 187.527 57.5394C187.527 58.8737 188.615 59.9578 189.955 59.9578C191.294 59.9578 192.382 58.8737 192.382 57.5394C192.382 56.2052 191.336 55.1211 189.955 55.1211ZM189.955 55.6214C191.043 55.6214 191.922 56.4971 191.922 57.5811C191.922 58.6652 191.043 59.5408 189.955 59.5408C188.867 59.5408 187.988 58.6652 187.988 57.5811C187.988 56.4971 188.908 55.6214 189.955 55.6214ZM189.118 56.3303V58.7486H189.62V57.873H189.996L190.457 58.7486H191.001V58.7069L190.457 57.7062C190.499 57.6645 190.582 57.6645 190.624 57.6228C190.708 57.5811 190.708 57.5394 190.75 57.4977C190.792 57.4144 190.833 57.3727 190.833 57.2893C190.875 57.2059 190.875 57.1225 190.875 57.0391C190.875 56.914 190.833 56.8306 190.792 56.7055C190.75 56.6221 190.708 56.5804 190.624 56.4971C190.541 56.4137 190.457 56.372 190.331 56.3303C190.248 56.2886 190.122 56.2886 189.955 56.2886H189.118V56.3303ZM189.662 56.7889H190.038C190.164 56.7889 190.248 56.7889 190.331 56.8723C190.415 56.9557 190.415 57.0391 190.415 57.1642C190.415 57.2059 190.415 57.2476 190.373 57.2893C190.331 57.331 190.331 57.3727 190.289 57.4144C190.248 57.456 190.206 57.456 190.164 57.4977C190.122 57.5394 190.08 57.5394 189.996 57.5394H189.62V56.7889H189.662Z" fill="#0E2D52"/>
</svg>
