<svg width="26" height="26" viewBox="0 0 26 26" fill="none" xmlns="http://www.w3.org/2000/svg">
<path d="M12.9999 25.9998C20.1795 25.9998 25.9998 20.1795 25.9998 12.9999C25.9998 5.82025 20.1795 0 12.9999 0C5.82025 0 0 5.82025 0 12.9999C0 20.1795 5.82025 25.9998 12.9999 25.9998Z" fill="#EE9755"/>
<path d="M18.825 7.5H7.425C6.64125 7.5 6.00712 8.14125 6.00712 8.925L6 17.475C6 18.2587 6.64125 18.9 7.425 18.9H18.825C19.6087 18.9 20.25 18.2587 20.25 17.475V8.925C20.25 8.14125 19.6087 7.5 18.825 7.5ZM18.825 10.35L13.125 13.9125L7.425 10.35V8.925L13.125 12.4875L18.825 8.925V10.35Z" fill="white"/>
</svg>
