<svg width="38" height="38" viewBox="0 0 38 38" fill="none" xmlns="http://www.w3.org/2000/svg">
<path d="M18.9004 0.0253906C8.68313 0.0253906 0.400391 8.30997 0.400391 18.5261C0.400391 28.7438 8.68313 37.0254 18.9004 37.0254C29.1177 37.0254 37.4004 28.7438 37.4004 18.5261C37.4004 8.30997 29.1169 0.0253906 18.9004 0.0253906ZM23.7964 18.4488H20.593C20.593 23.5681 20.593 29.8738 20.593 29.8738H15.845C15.845 29.8738 15.845 23.6327 15.845 18.4488H13.5867V14.415H15.845V11.8013C15.845 9.93052 16.733 7.01022 20.6373 7.01022L24.1533 7.02375V10.9418C24.1533 10.9418 22.0152 10.9418 21.6005 10.9418C21.1835 10.9418 20.5938 11.1499 20.5938 12.0394V14.4158H24.2134L23.7964 18.4488Z" fill="#E8E8E8"/>
</svg>
