<svg width="48" height="48" viewBox="0 0 48 48" fill="none" xmlns="http://www.w3.org/2000/svg">
<circle cx="24" cy="24" r="23.5" fill="#F8700D" stroke="#FF6B0B"/>
<path d="M24 13.5L15 16.5V25.5C15 30.4711 19.0289 34.5 24 34.5C28.9711 34.5 33 30.4711 33 25.5V16.5L24 13.5ZM31.3125 25.5C31.3125 29.5383 28.0383 32.8125 24 32.8125C19.9617 32.8125 16.6875 29.5383 16.6875 25.5V17.7656L24 15.1875L31.3125 17.7656V25.5Z" fill="white"/>
<path d="M20.8686 23.1352C20.7904 23.0566 20.6974 22.9943 20.5951 22.9517C20.4927 22.9092 20.3829 22.8873 20.2721 22.8873C20.1612 22.8873 20.0515 22.9092 19.9491 22.9517C19.8468 22.9943 19.7538 23.0566 19.6756 23.1352C19.597 23.2134 19.5347 23.3063 19.4922 23.4087C19.4496 23.511 19.4277 23.6208 19.4277 23.7316C19.4277 23.8425 19.4496 23.9522 19.4922 24.0546C19.5347 24.157 19.597 24.2499 19.6756 24.3281L22.7084 27.3609L22.7576 27.4102C22.8316 27.4843 22.9195 27.5431 23.0162 27.5832C23.1129 27.6233 23.2166 27.6439 23.3213 27.6439C23.426 27.6439 23.5297 27.6233 23.6264 27.5832C23.7231 27.5431 23.811 27.4843 23.885 27.4102L29.1233 22.1719C29.1974 22.0979 29.2562 22.01 29.2963 21.9133C29.3364 21.8166 29.357 21.7129 29.357 21.6082C29.357 21.5035 29.3364 21.3998 29.2963 21.3031C29.2562 21.2064 29.1974 21.1185 29.1233 21.0445L29.0576 20.9789C28.9837 20.9048 28.8958 20.846 28.7991 20.8059C28.7024 20.7658 28.5987 20.7451 28.494 20.7451C28.3892 20.7451 28.2856 20.7658 28.1888 20.8059C28.0921 20.846 28.0043 20.9048 27.9303 20.9789L23.3201 25.5867L20.8686 23.1352Z" fill="white"/>
</svg>
