<svg width="26" height="26" viewBox="0 0 26 26" fill="none" xmlns="http://www.w3.org/2000/svg">
<circle cx="13" cy="13" r="13" fill="#0077B5"/>
<rect x="5.85156" y="5.63379" width="14.7333" height="13.8667" fill="white"/>
<path d="M19.7703 4.7666H6.75093C6.03953 4.7666 5.41797 5.27848 5.41797 5.98152V19.0298C5.41797 19.7367 6.03953 20.3666 6.75093 20.3666H19.7665C20.4817 20.3666 21.0179 19.7325 21.0179 19.0298V5.98152C21.0221 5.27848 20.4817 4.7666 19.7703 4.7666ZM10.2536 17.77H8.01878V10.8214H10.2536V17.77ZM9.2135 9.76487H9.19748C8.48225 9.76487 8.01913 9.23245 8.01913 8.56597C8.01913 7.8873 8.49444 7.36741 9.22569 7.36741C9.95694 7.36741 10.4044 7.88347 10.4204 8.56597C10.4201 9.23245 9.95693 9.76487 9.2135 9.76487ZM18.4213 17.77H16.1865V13.9706C16.1865 13.0604 15.8612 12.4385 15.0527 12.4385C14.435 12.4385 14.0693 12.8563 13.9067 13.2634C13.8458 13.4096 13.8294 13.6088 13.8294 13.8122V17.77H11.5946V10.8214H13.8294V11.7883C14.1547 11.3252 14.6627 10.6587 15.8449 10.6587C17.3119 10.6587 18.4217 11.6257 18.4217 13.7105L18.4213 17.77Z" fill="#0077B5"/>
</svg>
