<svg width="15" height="14" viewBox="0 0 15 14" fill="none" xmlns="http://www.w3.org/2000/svg">
<path d="M7.4987 13.6663C3.8167 13.6663 0.832031 10.6817 0.832031 6.99967C0.832031 3.31767 3.8167 0.333008 7.4987 0.333008C11.1807 0.333008 14.1654 3.31767 14.1654 6.99967C14.1654 10.6817 11.1807 13.6663 7.4987 13.6663ZM7.4987 12.333C8.91319 12.333 10.2697 11.7711 11.2699 10.7709C12.2701 9.77072 12.832 8.41416 12.832 6.99967C12.832 5.58519 12.2701 4.22863 11.2699 3.22844C10.2697 2.22824 8.91319 1.66634 7.4987 1.66634C6.08421 1.66634 4.72766 2.22824 3.72746 3.22844C2.72727 4.22863 2.16536 5.58519 2.16536 6.99967C2.16536 8.41416 2.72727 9.77072 3.72746 10.7709C4.72766 11.7711 6.08421 12.333 7.4987 12.333V12.333ZM6.83203 3.66634H8.16536V4.99967H6.83203V3.66634ZM6.83203 6.33301H8.16536V10.333H6.83203V6.33301Z" fill="white"/>
</svg>
