<svg width="38" height="38" viewBox="0 0 38 38" fill="none" xmlns="http://www.w3.org/2000/svg">
<path d="M26.9379 14.476V11.5106V11.0674L26.4947 11.0689L23.5293 11.0794L23.5406 14.4873L26.9379 14.476Z" fill="#E8E8E8"/>
<path d="M19.2093 22.3468C21.1612 22.3468 22.7502 20.7593 22.7502 18.8075C22.7502 18.0374 22.4992 17.3237 22.0793 16.7429C21.4369 15.8519 20.3903 15.2666 19.2093 15.2666C18.0283 15.2666 16.9832 15.8519 16.3393 16.7429C15.9194 17.3237 15.6699 18.0374 15.6699 18.8075C15.6699 20.7593 17.2574 22.3468 19.2093 22.3468Z" fill="#E8E8E8"/>
<path d="M19.3015 0.0253906C9.08386 0.0253906 0.800781 8.30697 0.800781 18.5246C0.800781 28.7423 9.08386 37.0254 19.3015 37.0254C29.5177 37.0254 37.8008 28.7423 37.8008 18.5246C37.8008 8.30697 29.517 0.0253906 19.3015 0.0253906ZM29.266 16.7426V24.9776C29.266 27.1203 27.5215 28.8633 25.3788 28.8633H13.0387C10.8952 28.8633 9.15223 27.1203 9.15223 24.9776V16.7426V12.6375C9.15223 10.494 10.8952 8.75098 13.0387 8.75098H25.3788C27.5215 8.75098 29.266 10.494 29.266 12.6375V16.7426Z" fill="#E8E8E8"/>
<path d="M24.7095 18.8077C24.7095 21.8392 22.243 24.3073 19.21 24.3073C16.177 24.3073 13.712 21.8392 13.712 18.8077C13.712 18.0767 13.857 17.3818 14.1155 16.7432H11.1133V24.9782C11.1133 26.0405 11.9773 26.9045 13.0396 26.9045H25.3797C26.442 26.9045 27.306 26.0405 27.306 24.9782V16.7432H24.3023C24.563 17.3818 24.7095 18.0775 24.7095 18.8077Z" fill="#E8E8E8"/>
</svg>
