<svg width="73" height="60" viewBox="0 0 73 60" fill="none" xmlns="http://www.w3.org/2000/svg">
<path fill-rule="evenodd" clip-rule="evenodd" d="M45.1905 16.1176V31.7353H48.6667H52.1429V24.7941V17.8529H62.5714H73V9.17647V0.5H59.0952H45.1905V16.1176ZM17.4427 8.91444C6.72295 14.5394 9.41092 29.9488 21.3673 31.4108C27.7191 32.1865 33.6295 27.3953 34.4369 20.8142C35.5467 11.7638 25.4657 4.70375 17.4427 8.91444ZM14.6713 39.8218C5.73224 43.1613 0 49.3746 0 55.7257V59.5H22.5952H45.1905V55.6633C45.1905 50.6726 41.3137 45.4875 34.8862 41.8824C29.3721 38.7901 19.9924 37.834 14.6713 39.8218Z" fill="#E6EDF0"/>
</svg>
