<svg width="60" height="60" viewBox="0 0 60 60" fill="none" xmlns="http://www.w3.org/2000/svg">
<circle cx="30" cy="30" r="30" fill="#60EE55"/>
<path fill-rule="evenodd" clip-rule="evenodd" d="M27.0429 14.8698C24.0605 16.6883 23.0512 20.2976 24.7478 23.08C26.5241 25.9941 29.6898 26.9628 32.5939 25.4817C37.014 23.2279 37.2113 17.4636 32.9571 14.8698C32.1731 14.3916 30.8422 14 30 14C29.1578 14 27.8269 14.3916 27.0429 14.8698ZM14.7356 19.8583C10.9429 21.9607 12.5297 27.9985 16.875 27.9985C19.0918 27.9985 21.25 25.861 21.25 23.6654C21.25 20.3803 17.6201 18.2591 14.7356 19.8583ZM40.9856 19.8583C37.1929 21.9607 38.7798 27.9985 43.125 27.9985C45.3418 27.9985 47.5 25.861 47.5 23.6654C47.5 20.3803 43.8701 18.2591 40.9856 19.8583ZM25.4062 30.3437C22.951 30.9909 20.5023 32.0432 19.4619 32.8977C18.1669 33.9614 17.75 35.3716 17.75 38.6895V42H30H42.25V38.739C42.25 36.9454 42.0422 35.022 41.7884 34.465C40.2686 31.1287 31.1392 28.8324 25.4062 30.3437ZM13.4957 32.2479C12.479 32.5936 11.0519 33.4333 10.3239 34.1136C9.07525 35.2801 9 35.5387 9 38.6751V42H11.625H14.25V38.259C14.25 35.7116 14.4696 34.0935 14.9386 33.1865C15.3171 32.4545 15.5634 31.8021 15.4855 31.7369C15.4076 31.6717 14.5121 31.9018 13.4957 32.2479ZM44.4528 31.8537C44.4616 32.0195 44.7499 32.6474 45.0938 33.249C45.5006 33.9609 45.7246 35.6805 45.7347 38.1715L45.75 42H48.375H51V38.6751C51 35.5431 50.9239 35.2788 49.684 34.1206C48.4341 32.9533 44.42 31.2136 44.4528 31.8537Z" fill="white"/>
</svg>
