<svg width="37" height="38" viewBox="0 0 37 38" fill="none" xmlns="http://www.w3.org/2000/svg">
<path d="M18.5007 0.0253906C8.28308 0.0253906 0 8.30813 0 18.5254C0 28.7442 8.28308 37.0254 18.5007 37.0254C28.7169 37.0254 37 28.7442 37 18.5254C37 8.30888 28.7162 0.0253906 18.5007 0.0253906ZM28.8048 27.5113C28.8048 28.3347 28.1211 29.0003 27.2789 29.0003H9.685C8.84129 29.0003 8.15911 28.334 8.15911 27.5113V9.71451C8.15911 8.89262 8.84129 8.22549 9.685 8.22549H27.2782C28.1204 8.22549 28.8041 8.89337 28.8041 9.71451V27.5113H28.8048Z" fill="#E8E8E8"/>
<path d="M22.0703 16.0166C20.4167 16.0166 19.6752 16.9249 19.2605 17.565V17.5958H19.2402C19.2477 17.5868 19.2552 17.5755 19.2605 17.565V16.2367H16.1426C16.1839 17.1157 16.1426 25.6156 16.1426 25.6156H19.2605V20.377C19.2605 20.0952 19.2808 19.818 19.3634 19.6167C19.5895 19.0577 20.1027 18.4748 20.9629 18.4748C22.0929 18.4748 22.5437 19.3357 22.5437 20.5963V25.6148H25.6615V20.238C25.6608 17.3561 24.1214 16.0166 22.0703 16.0166Z" fill="#E8E8E8"/>
<path d="M12.88 11.7119C11.8139 11.7119 11.1152 12.4136 11.1152 13.3339C11.1152 14.2332 11.7914 14.9551 12.8387 14.9551H12.859C13.9461 14.9551 14.6231 14.2332 14.6231 13.3339C14.6028 12.4136 13.9469 11.7119 12.88 11.7119Z" fill="#E8E8E8"/>
<path d="M14.4175 16.2373H11.2988V25.6161H14.4175V16.2373Z" fill="#E8E8E8"/>
</svg>
