<svg width="15" height="18" viewBox="0 0 15 18" fill="none" xmlns="http://www.w3.org/2000/svg">
<g clip-path="url(#clip0_1298_36681)">
<path fill-rule="evenodd" clip-rule="evenodd" d="M7.80006 4.20586C7.98169 4.12999 8.19215 4.16714 8.33505 4.30031L13.7645 9.36008C13.8621 9.45101 13.9173 9.57696 13.9173 9.70865C13.9173 9.84034 13.8621 9.96629 13.7645 10.0572L8.33505 15.117C8.19215 15.2502 7.98169 15.2873 7.80006 15.2114C7.61844 15.1356 7.50065 14.9613 7.50065 14.7684V12.366C6.02438 12.4091 5.01648 12.6501 4.22836 13.0479C3.3554 13.4885 2.70181 14.146 1.96658 15.065C1.8369 15.2271 1.61613 15.291 1.41692 15.2241C1.21771 15.1571 1.08398 14.9741 1.08398 14.7684C1.08398 12.9352 1.39261 11.0116 2.43044 9.53504C3.42653 8.11793 5.04627 7.17932 7.50065 7.06918V4.64889C7.50065 4.45602 7.61844 4.28173 7.80006 4.20586Z" fill="#BDCDD4"/>
</g>
<defs>
<clipPath id="clip0_1298_36681">
<rect width="14" height="18" fill="white" transform="translate(0.5)"/>
</clipPath>
</defs>
</svg>
