<svg width="38" height="38" viewBox="0 0 38 38" fill="none" xmlns="http://www.w3.org/2000/svg">
<path d="M18.6991 0.0253906C8.48187 0.0253906 0.199219 8.30826 0.199219 18.5252C0.199219 26.3629 5.07534 33.063 11.9573 35.7585C11.7955 34.2948 11.6494 32.0437 12.0216 30.4457C12.3576 29.002 14.1909 21.25 14.1909 21.25C14.1909 21.25 13.6374 20.1419 13.6374 18.5034C13.6374 15.931 15.1284 14.0105 16.9849 14.0105C18.5631 14.0105 19.3257 15.1956 19.3257 16.6165C19.3257 18.2039 18.3151 20.5769 17.7934 22.7761C17.3577 24.6175 18.7169 26.1191 20.533 26.1191C23.8213 26.1191 26.3487 22.6521 26.3487 17.6475C26.3487 13.2181 23.1657 10.1211 18.6212 10.1211C13.3573 10.1211 10.2675 14.0693 10.2675 18.1495C10.2675 19.7396 10.8799 21.4445 11.6443 22.3713C11.7953 22.5545 11.8176 22.7151 11.7726 22.9019C11.6321 23.4864 11.3201 24.7428 11.2587 25C11.178 25.3386 10.9906 25.4105 10.6401 25.2474C8.32946 24.1718 6.88495 20.7939 6.88495 18.0805C6.88495 12.2447 11.1249 6.88549 19.1085 6.88549C25.5262 6.88549 30.5136 11.4584 30.5136 17.57C30.5136 23.9459 26.4935 29.077 20.9137 29.077C19.0391 29.077 17.2767 28.1031 16.6735 26.9528C16.6735 26.9528 15.7458 30.485 15.5209 31.3506C15.1031 32.9576 13.9757 34.9718 13.2216 36.2003C14.9527 36.7363 16.7921 37.0253 18.6991 37.0253C28.9166 37.0253 37.1993 28.7428 37.1993 18.5252C37.1993 8.30826 28.9166 0.0253906 18.6991 0.0253906Z" fill="#E8E8E8"/>
</svg>
