<svg width="20" height="21" viewBox="0 0 20 21" fill="none" xmlns="http://www.w3.org/2000/svg">
<path d="M9.99935 17.792C8.06548 17.792 6.21081 17.0238 4.84336 15.6563C3.47591 14.2889 2.70768 12.4342 2.70768 10.5003C2.70768 8.56646 3.47591 6.71179 4.84336 5.34434C6.21081 3.97689 8.06548 3.20866 9.99935 3.20866C11.9332 3.20866 13.7879 3.97689 15.1553 5.34434C16.5228 6.71179 17.291 8.56646 17.291 10.5003C17.291 12.4342 16.5228 14.2889 15.1553 15.6563C13.7879 17.0238 11.9332 17.792 9.99935 17.792ZM9.99935 18.8337C12.2095 18.8337 14.3291 17.9557 15.8919 16.3929C17.4547 14.8301 18.3327 12.7105 18.3327 10.5003C18.3327 8.29019 17.4547 6.17057 15.8919 4.60777C14.3291 3.04497 12.2095 2.16699 9.99935 2.16699C7.78921 2.16699 5.6696 3.04497 4.10679 4.60777C2.54399 6.17057 1.66602 8.29019 1.66602 10.5003C1.66602 12.7105 2.54399 14.8301 4.10679 16.3929C5.6696 17.9557 7.78921 18.8337 9.99935 18.8337Z" fill="#BCBCBC"/>
<path d="M7.14085 8.19375C7.13942 8.22739 7.14489 8.26097 7.15692 8.29241C7.16895 8.32386 7.18729 8.35251 7.2108 8.37661C7.23431 8.40071 7.26251 8.41975 7.29365 8.43255C7.32479 8.44535 7.35822 8.45164 7.39189 8.45104H8.25126C8.39501 8.45104 8.5096 8.33333 8.52835 8.19063C8.6221 7.50729 9.09085 7.00938 9.92626 7.00938C10.6408 7.00938 11.295 7.36667 11.295 8.22604C11.295 8.8875 10.9054 9.19167 10.2898 9.65417C9.58876 10.1635 9.03355 10.7583 9.07314 11.724L9.07626 11.95C9.07736 12.0183 9.10528 12.0835 9.15399 12.1315C9.20271 12.1794 9.26833 12.2063 9.33668 12.2063H10.1815C10.2505 12.2063 10.3168 12.1788 10.3656 12.13C10.4145 12.0811 10.4419 12.0149 10.4419 11.9458V11.8365C10.4419 11.0885 10.7263 10.8708 11.494 10.2885C12.1283 9.80625 12.7898 9.27083 12.7898 8.14688C12.7898 6.57292 11.4606 5.8125 10.0054 5.8125C8.68564 5.8125 7.2398 6.42708 7.14085 8.19375ZM8.76272 14.1969C8.76272 14.7521 9.20543 15.1625 9.8148 15.1625C10.4492 15.1625 10.8856 14.7521 10.8856 14.1969C10.8856 13.6219 10.4481 13.2177 9.81376 13.2177C9.20543 13.2177 8.76272 13.6219 8.76272 14.1969Z" fill="#BCBCBC"/>
</svg>
