<svg width="144" height="35" viewBox="0 0 144 35" fill="none" xmlns="http://www.w3.org/2000/svg">
<path d="M38.2269 12.3887H52.6333V15.0706H46.9609V30.1891H43.8518V15.0706H38.2031L38.2269 12.3887ZM52.0162 17.3016H54.6744V19.7936H54.7219C54.8168 19.4376 54.983 19.1054 55.2203 18.7731C55.4577 18.4408 55.7425 18.1323 56.0985 17.8712C56.4307 17.5864 56.8105 17.3728 57.2377 17.2066C57.6412 17.0405 58.0684 16.9456 58.4956 16.9456C58.8279 16.9456 59.0652 16.9693 59.1839 16.9693C59.3025 16.993 59.4449 17.0168 59.5636 17.0168V19.7462C59.3737 19.6987 59.1601 19.675 58.9465 19.6512C58.7329 19.6275 58.5431 19.6038 58.3295 19.6038C57.8548 19.6038 57.4038 19.6987 56.9766 19.8886C56.5494 20.0784 56.1934 20.3633 55.8611 20.7193C55.5526 21.099 55.2915 21.55 55.1016 22.0958C54.9118 22.6417 54.8168 23.2825 54.8168 23.9945V30.1179H51.9688L52.0162 17.3016ZM72.6172 30.1891H69.8166V28.3853H69.7692C69.4132 29.0499 68.891 29.5483 68.2027 29.9518C67.5145 30.3552 66.8024 30.5451 66.0904 30.5451C64.4053 30.5451 63.1712 30.1416 62.4117 29.2872C61.6522 28.4565 61.2724 27.1749 61.2724 25.4898V17.3016H64.1205V25.205C64.1205 26.3442 64.3341 27.1511 64.7851 27.6021C65.2123 28.0768 65.8294 28.3141 66.6126 28.3141C67.2059 28.3141 67.7043 28.2192 68.1078 28.0293C68.5113 27.8394 68.8436 27.6021 69.0809 27.2936C69.342 26.985 69.5081 26.6053 69.6268 26.1781C69.7454 25.7508 69.7929 25.2762 69.7929 24.7778V17.3016H72.641V30.1891H72.6172ZM77.459 26.0594C77.5539 26.8901 77.8624 27.4597 78.4083 27.8157C78.9542 28.148 79.6187 28.3141 80.3782 28.3141C80.6393 28.3141 80.9478 28.2904 81.2801 28.2429C81.6124 28.1954 81.9447 28.1242 82.2295 28.0056C82.538 27.8869 82.7754 27.7208 82.9652 27.4834C83.1551 27.2461 83.25 26.9613 83.2263 26.6053C83.2026 26.2493 83.0839 25.9407 82.8228 25.7034C82.5617 25.466 82.2532 25.2999 81.8735 25.1338C81.4937 24.9914 81.0428 24.8727 80.5444 24.7778C80.0459 24.6828 79.5475 24.5642 79.0254 24.4455C78.5032 24.3268 77.9811 24.1844 77.4827 24.0183C76.9843 23.8521 76.5571 23.6385 76.1536 23.33C75.7739 23.0452 75.4416 22.6892 75.228 22.2382C74.9906 21.7873 74.872 21.2651 74.872 20.6006C74.872 19.8886 75.0381 19.319 75.3941 18.8443C75.7264 18.3696 76.1773 17.9899 76.6995 17.7051C77.2216 17.4203 77.815 17.2066 78.4558 17.088C79.0966 16.9693 79.7137 16.9218 80.2833 16.9218C80.9478 16.9218 81.5887 16.993 82.182 17.1355C82.7753 17.2779 83.345 17.4915 83.8196 17.8237C84.318 18.1323 84.7215 18.5595 85.0301 19.0579C85.3623 19.5563 85.5522 20.1734 85.6471 20.8854H82.6804C82.538 20.1971 82.2295 19.7462 81.7548 19.5088C81.2564 19.2715 80.7105 19.1528 80.0697 19.1528C79.8798 19.1528 79.6187 19.1766 79.3577 19.2003C79.0729 19.2478 78.8355 19.2952 78.5745 19.3902C78.3371 19.4851 78.1235 19.6275 77.9574 19.7936C77.7912 19.9598 77.6963 20.1971 77.6963 20.4819C77.6963 20.8379 77.815 21.099 78.0523 21.3126C78.2896 21.5262 78.5982 21.6924 79.0017 21.8585C79.3814 22.0009 79.8323 22.1196 80.3308 22.2145C80.8292 22.3094 81.3513 22.4281 81.8735 22.5468C82.3956 22.6654 82.894 22.8078 83.3924 22.974C83.8908 23.1401 84.3418 23.3537 84.7215 23.6623C85.1013 23.9471 85.4335 24.3031 85.6709 24.7303C85.9082 25.1575 86.0269 25.7034 86.0269 26.3205C86.0269 27.0799 85.8607 27.7208 85.5047 28.2666C85.1487 28.7888 84.6978 29.2397 84.1519 29.572C83.606 29.9043 82.9652 30.1416 82.3007 30.3078C81.6124 30.4502 80.9478 30.5451 80.2833 30.5451C79.4763 30.5451 78.7169 30.4502 78.0286 30.2603C77.3403 30.0704 76.7232 29.7856 76.2248 29.4296C75.7264 29.0499 75.3229 28.5989 75.0381 28.0293C74.7533 27.4834 74.5872 26.8189 74.5634 26.0357H77.4352V26.0594H77.459ZM86.8338 17.3016H88.9936V13.4092H91.8417V17.2778H94.4049V19.3902H91.8417V26.273C91.8417 26.5815 91.8654 26.8189 91.8892 27.0562C91.9129 27.2698 91.9841 27.4597 92.0553 27.6021C92.1502 27.7445 92.2926 27.8632 92.4588 27.9344C92.6486 28.0056 92.886 28.053 93.2183 28.053C93.4081 28.053 93.6217 28.053 93.8116 28.0293C94.0015 28.0056 94.2151 27.9818 94.4049 27.9344V30.1416C94.0964 30.1891 93.7879 30.2128 93.4793 30.2366C93.1708 30.284 92.886 30.284 92.5537 30.284C91.7942 30.284 91.2009 30.2128 90.7499 30.0704C90.299 29.928 89.943 29.7144 89.6819 29.4533C89.4208 29.1685 89.2547 28.8363 89.1598 28.4328C89.0648 28.0293 89.0174 27.5309 88.9936 27.0087V19.4139H86.8338V17.2541V17.3016ZM96.3986 17.3016H99.0805V19.0579H99.128C99.5315 18.2984 100.077 17.7763 100.789 17.444C101.501 17.1117 102.261 16.9456 103.115 16.9456C104.136 16.9456 105.014 17.1117 105.773 17.4915C106.533 17.8475 107.15 18.3221 107.648 18.963C108.147 19.58 108.527 20.3158 108.764 21.1465C109.001 21.9772 109.144 22.879 109.144 23.8047C109.144 24.6828 109.025 25.5135 108.811 26.3205C108.574 27.1274 108.242 27.8632 107.791 28.4802C107.34 29.0973 106.77 29.5957 106.058 29.9755C105.346 30.3552 104.539 30.5451 103.59 30.5451C103.186 30.5451 102.759 30.4976 102.356 30.4264C101.952 30.3552 101.549 30.2366 101.169 30.0704C100.789 29.9043 100.433 29.6907 100.125 29.4296C99.7925 29.1685 99.5315 28.86 99.3179 28.5277H99.2704V34.9596H96.4223V17.3016H96.3986ZM106.343 23.7572C106.343 23.1876 106.272 22.618 106.106 22.0721C105.963 21.5262 105.726 21.0515 105.417 20.6243C105.109 20.1971 104.729 19.8648 104.302 19.6038C103.851 19.3427 103.329 19.224 102.759 19.224C101.573 19.224 100.671 19.6275 100.054 20.4582C99.4603 21.2889 99.1517 22.4044 99.1517 23.7809C99.1517 24.4455 99.2229 25.0388 99.3891 25.5847C99.5552 26.1306 99.7688 26.6053 100.101 27.0087C100.41 27.4122 100.789 27.7208 101.24 27.9581C101.691 28.1954 102.19 28.3141 102.783 28.3141C103.448 28.3141 103.97 28.1717 104.421 27.9106C104.872 27.6496 105.228 27.2936 105.536 26.8901C105.821 26.4629 106.035 25.9882 106.153 25.4423C106.272 24.8727 106.343 24.3268 106.343 23.7572V23.7572ZM111.351 12.3887H114.199V15.0706H111.351V12.3887ZM111.351 17.3016H114.199V30.1891H111.351V17.3016ZM116.739 12.3887H119.587V30.1891H116.739V12.3887ZM128.273 30.5451C127.253 30.5451 126.327 30.379 125.52 30.023C124.713 29.6669 124.049 29.216 123.479 28.6227C122.933 28.0293 122.506 27.2936 122.221 26.4629C121.936 25.6322 121.77 24.7066 121.77 23.7335C121.77 22.7604 121.913 21.8585 122.221 21.0278C122.506 20.1971 122.933 19.4851 123.479 18.868C124.025 18.2747 124.713 17.8 125.52 17.4677C126.327 17.1354 127.253 16.9456 128.273 16.9456C129.294 16.9456 130.219 17.1117 131.026 17.4677C131.833 17.8 132.498 18.2747 133.067 18.868C133.613 19.4614 134.041 20.1971 134.325 21.0278C134.61 21.8585 134.776 22.7604 134.776 23.7335C134.776 24.7303 134.634 25.6322 134.325 26.4629C134.017 27.2936 133.613 28.0056 133.067 28.6227C132.522 29.216 131.833 29.6907 131.026 30.023C130.219 30.3552 129.317 30.5451 128.273 30.5451ZM128.273 28.2904C128.89 28.2904 129.46 28.148 129.911 27.8869C130.386 27.6258 130.742 27.2698 131.05 26.8426C131.359 26.4154 131.572 25.917 131.715 25.3948C131.857 24.849 131.928 24.3031 131.928 23.7335C131.928 23.1876 131.857 22.6417 131.715 22.0958C131.572 21.55 131.359 21.0753 131.05 20.6481C130.742 20.2209 130.362 19.8886 129.911 19.6275C129.436 19.3664 128.89 19.224 128.273 19.224C127.656 19.224 127.087 19.3664 126.636 19.6275C126.161 19.8886 125.805 20.2446 125.496 20.6481C125.188 21.0753 124.974 21.55 124.832 22.0958C124.689 22.6417 124.618 23.1876 124.618 23.7335C124.618 24.3031 124.689 24.849 124.832 25.3948C124.974 25.9407 125.188 26.4154 125.496 26.8426C125.805 27.2698 126.185 27.6258 126.636 27.8869C127.11 28.1717 127.656 28.2904 128.273 28.2904ZM135.631 17.3016H137.79V13.4092H140.639V17.2778H143.202V19.3902H140.639V26.273C140.639 26.5815 140.662 26.8189 140.686 27.0562C140.71 27.2698 140.781 27.4597 140.852 27.6021C140.947 27.7445 141.089 27.8632 141.256 27.9344C141.445 28.0056 141.683 28.053 142.015 28.053C142.205 28.053 142.419 28.053 142.608 28.0293C142.798 28.0056 143.012 27.9818 143.202 27.9344V30.1416C142.893 30.1891 142.585 30.2128 142.276 30.2366C141.968 30.284 141.683 30.284 141.351 30.284C140.591 30.284 139.998 30.2128 139.547 30.0704C139.096 29.928 138.74 29.7144 138.479 29.4533C138.218 29.1685 138.052 28.8363 137.957 28.4328C137.862 28.0293 137.814 27.5309 137.79 27.0087V19.4139H135.631V17.2541V17.3016Z" fill="black"/>
<path d="M34.9044 12.3891H21.8745L17.8635 0L13.8287 12.3891L0.798828 12.3653L11.3367 20.0314L7.3019 32.4205L17.8397 24.7544L28.3776 32.4205L24.3665 20.0314L34.9044 12.3891Z" fill="#00B67A"/>
<path d="M25.2685 22.8318L24.3666 20.0312L17.8633 24.7543L25.2685 22.8318Z" fill="#005128"/>
</svg>
