<svg width="24" height="25" viewBox="0 0 24 25" fill="none" xmlns="http://www.w3.org/2000/svg">
<path d="M3.69143 7.25196C5.09443 5.73096 7.21743 4.95996 10.0004 4.95996H11.0004V7.77896L10.1964 7.93996C8.82643 8.21396 7.87343 8.75296 7.36343 9.54396C7.09732 9.97009 6.9464 10.458 6.92543 10.96H10.0004C10.2656 10.96 10.52 11.0653 10.7075 11.2529C10.8951 11.4404 11.0004 11.6947 11.0004 11.96V18.96C11.0004 20.063 10.1034 20.96 9.00043 20.96H3.00043C2.73521 20.96 2.48086 20.8546 2.29332 20.6671C2.10579 20.4795 2.00043 20.2252 2.00043 19.96V14.96L2.00343 12.041C1.99443 11.93 1.80443 9.29996 3.69143 7.25196ZM20.0004 20.96H14.0004C13.7352 20.96 13.4809 20.8546 13.2933 20.6671C13.1058 20.4795 13.0004 20.2252 13.0004 19.96V14.96L13.0034 12.041C12.9944 11.93 12.8044 9.29996 14.6914 7.25196C16.0944 5.73096 18.2174 4.95996 21.0004 4.95996H22.0004V7.77896L21.1964 7.93996C19.8264 8.21396 18.8734 8.75296 18.3634 9.54396C18.0973 9.97009 17.9464 10.458 17.9254 10.96H21.0004C21.2656 10.96 21.52 11.0653 21.7075 11.2529C21.8951 11.4404 22.0004 11.6947 22.0004 11.96V18.96C22.0004 20.063 21.1034 20.96 20.0004 20.96Z" fill="#00B67A"/>
</svg>
