<svg width="60" height="60" viewBox="0 0 60 60" fill="none" xmlns="http://www.w3.org/2000/svg">
<circle cx="30" cy="30" r="30" fill="#55ACEE"/>
<path fill-rule="evenodd" clip-rule="evenodd" d="M15.7504 17.7706C15.036 18.5046 15.0004 19.0548 15.0004 29.3297C15.0004 42.0367 14.8856 41.6594 18.7503 41.6594H21.0003V44.8297V48L24.1019 44.8297L27.2035 41.6594H35.3517C43.0002 41.6594 43.5461 41.612 44.25 40.8888C44.9644 40.1548 45 39.6046 45 29.3297C45 19.0548 44.9644 18.5046 44.25 17.7706C43.5278 17.0285 43.0001 17 30.0002 17C17.0002 17 16.4726 17.0285 15.7504 17.7706ZM31.1559 24.3208C32.0199 26.5551 32.0953 26.6326 33.4156 26.6326C34.1668 26.6326 35.3157 26.7424 35.969 26.8765L37.1562 27.1208L35.2287 28.8993L33.3009 30.6783L33.9005 33.0456C34.2305 34.3479 34.5001 35.5108 34.5001 35.6302C34.5001 35.7493 33.4876 35.2272 32.2502 34.4697L30.0002 33.0926L27.7502 34.4697C26.5127 35.2272 25.5002 35.7493 25.5002 35.6302C25.5002 35.5108 25.7699 34.3479 26.0999 33.0456L26.6995 30.6783L24.7716 28.8993L22.8441 27.1208L24.0314 26.8765C24.6846 26.7424 25.8524 26.6326 26.6263 26.6326C28.003 26.6326 28.0521 26.5821 28.8752 24.3208C29.3379 23.0493 29.8393 22.0089 29.9893 22.0089C30.1397 22.0089 30.6643 23.0493 31.1559 24.3208Z" fill="white"/>
</svg>
