<svg width="17" height="17" viewBox="0 0 17 17" fill="none" xmlns="http://www.w3.org/2000/svg">
<path fill-rule="evenodd" clip-rule="evenodd" d="M4.82542 14.8595C4.69294 14.8595 4.5611 14.8186 4.44973 14.7379C4.25773 14.5984 4.15789 14.3642 4.19181 14.1287L4.78638 9.96623L2.45292 7.63222C2.28332 7.46263 2.22316 7.21303 2.29612 6.98456C2.36908 6.75609 2.56364 6.58777 2.7998 6.54873L6.31855 5.96187L8.09264 2.41382C8.20208 2.19559 8.44208 2.05159 8.66864 2.05991C8.91248 2.06119 9.13392 2.20071 9.2408 2.42022L10.9394 5.90939L14.5375 6.55001C14.7724 6.59161 14.9644 6.76057 15.036 6.98776C15.1077 7.21559 15.0469 7.46391 14.878 7.63222L12.5439 9.96623L13.1391 14.1287C13.1723 14.3655 13.0725 14.601 12.8779 14.7398C12.684 14.8794 12.428 14.8979 12.2162 14.7904L8.71024 13.0151L5.10894 14.793C5.01934 14.8378 4.92206 14.8595 4.82542 14.8595Z" fill="#F8700D"/>
</svg>
