<svg width="60" height="60" viewBox="0 0 60 60" fill="none" xmlns="http://www.w3.org/2000/svg">
<circle cx="30" cy="30" r="30" fill="#55ACEE"/>
<path d="M46.9101 22.1699C45.753 22.6838 44.5084 23.0313 43.2031 23.1866C44.5358 22.3868 45.5586 21.1214 46.0413 19.6111C44.7943 20.352 43.4125 20.8895 41.9431 21.1793C40.7658 19.9235 39.0884 19.1387 37.2311 19.1387C33.6675 19.1387 30.7773 22.0335 30.7773 25.6027C30.7773 26.1093 30.8346 26.6025 30.9453 27.0759C25.5817 26.8064 20.8259 24.2331 17.6426 20.3212C17.0871 21.2757 16.7685 22.3868 16.7685 23.5713C16.7685 25.8133 17.9087 27.7927 19.6395 28.9516C18.5821 28.9183 17.5863 28.6276 16.7165 28.1422C16.7161 28.1697 16.7161 28.1971 16.7161 28.2241C16.7161 31.3561 18.9416 33.9684 21.8934 34.5618C21.3525 34.7103 20.7811 34.7889 20.1935 34.7889C19.7767 34.7889 19.3729 34.7489 18.9791 34.6737C19.8003 37.2412 22.1832 39.1101 25.0079 39.1627C22.7988 40.8967 20.0164 41.9297 16.9918 41.9297C16.472 41.9297 15.957 41.8993 15.4531 41.8391C18.3077 43.6738 21.7009 44.7435 25.3453 44.7435C37.2162 44.7435 43.708 34.894 43.708 26.3513C43.708 26.0712 43.7017 25.7921 43.6892 25.5154C44.9512 24.6043 46.0452 23.4662 46.9101 22.1699Z" fill="white"/>
</svg>
