<svg width="60" height="60" viewBox="0 0 60 60" fill="none" xmlns="http://www.w3.org/2000/svg">
<circle cx="30" cy="30" r="30" fill="#0077B5"/>
<rect x="13.5" y="13" width="34" height="32" fill="white"/>
<path d="M45.6208 11H15.5761C13.9344 11 12.5 12.1812 12.5 13.8037V43.9151C12.5 45.5463 13.9344 47 15.5761 47H45.6119C47.2624 47 48.4999 45.5367 48.4999 43.9151V13.8037C48.5096 12.1812 47.2624 11 45.6208 11ZM23.6592 41.0078H18.5019V24.9725H23.6592V41.0078ZM21.2589 22.5345H21.2219C19.5714 22.5345 18.5027 21.3058 18.5027 19.7678C18.5027 18.2016 19.5995 17.0019 21.287 17.0019C22.9745 17.0019 24.0071 18.1928 24.0441 19.7678C24.0433 21.3058 22.9745 22.5345 21.2589 22.5345ZM42.5077 41.0078H37.3504V32.24C37.3504 30.1395 36.5999 28.7043 34.734 28.7043C33.3084 28.7043 32.4647 29.6686 32.0894 30.6079C31.9488 30.9454 31.911 31.4051 31.911 31.8744V41.0078H26.7537V24.9725H31.911V27.204C32.6616 26.1353 33.834 24.5972 36.5621 24.5972C39.9475 24.5972 42.5085 26.8288 42.5085 31.6397L42.5077 41.0078Z" fill="#0077B5"/>
</svg>
