<svg width="60" height="60" viewBox="0 0 60 60" fill="none" xmlns="http://www.w3.org/2000/svg">
<circle cx="30" cy="30" r="30" fill="#DD40B8"/>
<rect x="13.5273" y="18.79" width="32.3185" height="22.5478" rx="5" fill="white"/>
<path d="M43.6264 18.0381H15.75C14.1076 18.0381 12.7773 19.3918 12.7773 21.0445V39.0827C12.7773 40.7452 14.1173 42.089 15.75 42.089H43.6264C45.2551 42.089 46.599 40.7509 46.599 39.0827V21.0445C46.599 19.3947 45.2741 18.0381 43.6264 18.0381ZM43.2101 20.0423C42.6028 20.6533 32.151 31.1681 31.7901 31.5311C31.2286 32.099 30.4822 32.4117 29.6882 32.4117C28.8942 32.4117 28.1477 32.0989 27.5844 31.5293C27.3417 31.2851 17.0052 20.8864 16.1662 20.0423H43.2101ZM14.7591 38.6747V21.4537L23.3227 30.0689L14.7591 38.6747ZM16.1675 40.0848L24.7278 31.4824L26.1849 32.9483C27.1207 33.8947 28.3648 34.4159 29.6882 34.4159C31.0115 34.4159 32.2556 33.8947 33.1896 32.9502L34.6486 31.4824L43.2088 40.0848H16.1675ZM44.6173 38.6747L36.0536 30.0689L44.6173 21.4537V38.6747Z" fill="#DD40B8"/>
</svg>
