<svg width="48" height="49" viewBox="0 0 48 49" fill="none" xmlns="http://www.w3.org/2000/svg">
<circle cx="24" cy="24.5" r="23.5" fill="#FF6B0B" stroke="#FF6B0B"/>
<path d="M24 34.5C18.477 34.5 14 30.023 14 24.5C14 18.977 18.477 14.5 24 14.5C29.523 14.5 34 18.977 34 24.5C34 30.023 29.523 34.5 24 34.5ZM24 32.5C26.1217 32.5 28.1566 31.6571 29.6569 30.1569C31.1571 28.6566 32 26.6217 32 24.5C32 22.3783 31.1571 20.3434 29.6569 18.8431C28.1566 17.3429 26.1217 16.5 24 16.5C21.8783 16.5 19.8434 17.3429 18.3431 18.8431C16.8429 20.3434 16 22.3783 16 24.5C16 26.6217 16.8429 28.6566 18.3431 30.1569C19.8434 31.6571 21.8783 32.5 24 32.5ZM25 24.5H29V26.5H23V19.5H25V24.5Z" fill="white"/>
</svg>
