<svg width="26" height="26" viewBox="0 0 26 26" fill="none" xmlns="http://www.w3.org/2000/svg">
<path d="M12.9999 25.9998C20.1795 25.9998 25.9998 20.1795 25.9998 12.9999C25.9998 5.82025 20.1795 0 12.9999 0C5.82025 0 0 5.82025 0 12.9999C0 20.1795 5.82025 25.9998 12.9999 25.9998Z" fill="#55ACEE"/>
<path d="M20.9622 9.34289C20.4051 9.58992 19.8058 9.757 19.1773 9.83162C19.819 9.44717 20.3114 8.83887 20.5439 8.11284C19.9434 8.46902 19.2781 8.7274 18.5706 8.86668C18.0038 8.26301 17.1962 7.88574 16.302 7.88574C14.5862 7.88574 13.1946 9.27731 13.1946 10.9931C13.1946 11.2366 13.2222 11.4737 13.2755 11.7013C10.693 11.5717 8.40327 10.3347 6.87057 8.45419C6.60315 8.91302 6.44974 9.44717 6.44974 10.0165C6.44974 11.0943 6.99872 12.0459 7.83204 12.6029C7.32292 12.587 6.84346 12.4472 6.42471 12.2139C6.42448 12.2271 6.42448 12.2403 6.42448 12.2533C6.42448 13.7588 7.49602 15.0146 8.91726 15.2999C8.65679 15.3713 8.38171 15.409 8.09877 15.409C7.89808 15.409 7.70366 15.3898 7.5141 15.3536C7.90944 16.5879 9.05676 17.4863 10.4168 17.5116C9.35315 18.3451 8.01349 18.8417 6.55726 18.8417C6.30699 18.8417 6.05903 18.8271 5.81641 18.7982C7.19083 19.6801 8.82456 20.1944 10.5793 20.1944C16.2948 20.1944 19.4204 15.4595 19.4204 11.353C19.4204 11.2183 19.4174 11.0842 19.4114 10.9511C20.019 10.5132 20.5457 9.96603 20.9622 9.34289Z" fill="#F1F2F2"/>
</svg>
