<svg width="37" height="38" viewBox="0 0 37 38" fill="none" xmlns="http://www.w3.org/2000/svg">
<path d="M18.5008 0.0253906C8.28308 0.0253906 0 8.30997 0 18.5261C0 28.7438 8.28308 37.0254 18.5008 37.0254C28.7184 37.0254 37 28.7438 37 18.5261C37 8.30997 28.7177 0.0253906 18.5008 0.0253906ZM27.8199 14.7959C27.8296 14.9958 27.8334 15.1964 27.8334 15.3992C27.8334 21.5606 23.1438 28.6642 14.5684 28.6642C11.9359 28.6642 9.48441 27.8926 7.42134 26.5703C7.78647 26.6131 8.15686 26.6349 8.53326 26.6349C10.718 26.6349 12.7285 25.8896 14.3235 24.6395C12.2837 24.6011 10.5625 23.2526 9.96899 21.4006C10.253 21.4562 10.5452 21.484 10.8458 21.484C11.271 21.484 11.6827 21.4284 12.0741 21.321C9.94044 20.8927 8.33341 19.007 8.33341 16.7501C8.33341 16.7298 8.33341 16.7103 8.33417 16.69C8.96225 17.0393 9.68125 17.2489 10.4461 17.2737C9.1944 16.436 8.37173 15.0108 8.37173 13.3925C8.37173 12.5383 8.60163 11.7366 9.00282 11.0485C11.3025 13.8688 14.7382 15.7253 18.6134 15.9191C18.5338 15.5788 18.4925 15.2219 18.4925 14.8568C18.4925 12.2828 20.5796 10.195 23.1551 10.195C24.4961 10.195 25.7072 10.7615 26.5577 11.6668C27.62 11.4587 28.6177 11.0695 29.5186 10.5353C29.1692 11.6247 28.4307 12.5383 27.4675 13.1145C28.4119 13.0018 29.3104 12.7509 30.1459 12.3805C29.5223 13.3174 28.7312 14.1386 27.8199 14.7959Z" fill="#E8E8E8"/>
</svg>
