<svg width="38" height="38" viewBox="0 0 38 38" fill="none" xmlns="http://www.w3.org/2000/svg">
<path d="M11.2012 20.0831H12.5407V26.7371H13.8351V20.0831H15.1731V18.9502H11.2012V20.0831Z" fill="#E8E8E8"/>
<path d="M19.1503 14.5539C19.3261 14.5539 19.4658 14.5073 19.5687 14.4119C19.6717 14.3135 19.7243 14.1798 19.7243 14.0115V10.5631C19.7243 10.4249 19.6717 10.3122 19.5657 10.2288C19.4598 10.1424 19.3223 10.0996 19.1503 10.0996C18.9933 10.0996 18.8656 10.1424 18.7656 10.2288C18.6672 10.3122 18.6191 10.4257 18.6191 10.5631V14.0115C18.6191 14.1843 18.665 14.318 18.7574 14.4119C18.8483 14.5073 18.9805 14.5539 19.1503 14.5539Z" fill="#E8E8E8"/>
<path d="M22.0039 20.9223C21.8251 20.9223 21.6486 20.9681 21.4743 21.059C21.3023 21.1499 21.137 21.2851 20.983 21.4594V18.9502H19.8223V26.7371H20.983V26.2969C21.1325 26.4742 21.297 26.6034 21.4728 26.6875C21.6471 26.7709 21.8484 26.8122 22.0746 26.8122C22.4134 26.8122 22.6763 26.7048 22.8536 26.4877C23.0339 26.2691 23.1248 25.958 23.1248 25.5516V22.3632C23.1248 21.8922 23.0294 21.5338 22.8356 21.2904C22.6448 21.0455 22.3676 20.9223 22.0039 20.9223ZM21.9408 25.3931C21.9408 25.5779 21.907 25.7086 21.8409 25.789C21.7748 25.8709 21.6719 25.9107 21.5314 25.9107C21.4345 25.9107 21.3436 25.8889 21.2542 25.8491C21.1663 25.8093 21.0739 25.7394 20.983 25.6463V22.0672C21.0611 21.9868 21.14 21.9275 21.2189 21.8914C21.2978 21.8516 21.3804 21.8343 21.4623 21.8343C21.6163 21.8343 21.7365 21.8839 21.8206 21.9823C21.901 22.0837 21.9408 22.2302 21.9408 22.4256V25.3931Z" fill="#E8E8E8"/>
<path d="M17.8083 25.3568C17.7009 25.48 17.5822 25.5815 17.453 25.6634C17.3238 25.7437 17.2156 25.7836 17.1329 25.7836C17.024 25.7836 16.9466 25.7543 16.897 25.6927C16.8505 25.6325 16.8249 25.5341 16.8249 25.3989V20.9912H15.6777V25.7956C15.6777 26.1389 15.7453 26.3913 15.8791 26.5656C16.0158 26.7362 16.2134 26.8211 16.4793 26.8211C16.695 26.8211 16.9181 26.7625 17.1472 26.6393C17.3764 26.5145 17.5965 26.3387 17.8091 26.1066V26.7362H18.9578V20.992H17.8091V25.3568H17.8083Z" fill="#E8E8E8"/>
<path d="M19.0996 0.0253906C8.88235 0.0253906 0.599609 8.30813 0.599609 18.5254C0.599609 28.7442 8.88235 37.0254 19.0996 37.0254C29.3169 37.0254 37.5996 28.7442 37.5996 18.5254C37.5996 8.30813 29.3161 0.0253906 19.0996 0.0253906ZM22.0882 9.16232H23.3796V14.0148C23.3796 14.1658 23.4089 14.2732 23.463 14.3393C23.5156 14.4069 23.6042 14.4422 23.7259 14.4422C23.8198 14.4422 23.94 14.3964 24.0865 14.3085C24.23 14.2176 24.3638 14.1049 24.484 13.9652V9.16232H25.7784V15.491H24.484V14.7923C24.2481 15.0493 23.9994 15.2469 23.7402 15.3806C23.4833 15.5143 23.2338 15.5834 22.9904 15.5834C22.6914 15.5834 22.4668 15.488 22.3143 15.2987C22.1648 15.1124 22.0882 14.8306 22.0882 14.4505V9.16232ZM17.2875 10.6093C17.2875 10.1209 17.4603 9.73028 17.8082 9.43654C18.1575 9.1488 18.6256 9.0023 19.2123 9.0023C19.748 9.0023 20.1852 9.15631 20.5285 9.46133C20.8688 9.76634 21.0394 10.163 21.0394 10.6468V13.9149C21.0394 14.458 20.8719 14.8817 20.539 15.1883C20.2017 15.4948 19.7412 15.6488 19.1537 15.6488C18.5887 15.6488 18.1357 15.4903 17.7962 15.1747C17.4573 14.8547 17.2868 14.4265 17.2868 13.8893V10.6093H17.2875ZM13.7656 6.91302L14.7107 10.3403H14.8031L15.7024 6.91302H17.1816L15.4883 11.933V15.4918H14.0323V12.0915L12.2991 6.91302H13.7656V6.91302ZM30.6985 24.9683C30.6985 27.2574 28.8421 29.1153 26.553 29.1153H12.1466C9.85599 29.1153 7.99961 27.2574 7.99961 24.9683V21.6341C7.99961 19.3435 9.85599 17.4871 12.1466 17.4871H26.553C28.8421 17.4871 30.6985 19.3435 30.6985 21.6341V24.9683Z" fill="#E8E8E8"/>
<path d="M25.4706 20.8506C24.9552 20.8506 24.539 21.0061 24.2129 21.3216C23.8884 21.6342 23.7246 22.0421 23.7246 22.5364V25.1193C23.7246 25.6737 23.8741 26.108 24.1694 26.422C24.4646 26.7375 24.8695 26.896 25.3842 26.896C25.9566 26.896 26.3864 26.748 26.6726 26.4513C26.9633 26.1523 27.1053 25.709 27.1053 25.1193V24.824H25.9243V25.0855C25.9243 25.4243 25.8845 25.6429 25.8101 25.7413C25.7358 25.8398 25.602 25.8893 25.4112 25.8893C25.2279 25.8893 25.0987 25.8322 25.0221 25.7166C24.9469 25.5979 24.9109 25.389 24.9109 25.0855V24.0044H27.1061V22.5372C27.1061 21.994 26.9663 21.5778 26.6839 21.2856C26.4006 20.9956 25.9957 20.8506 25.4706 20.8506ZM25.9243 23.1104H24.9101V22.5297C24.9101 22.2893 24.9469 22.1142 25.0273 22.0143C25.1077 21.9069 25.2384 21.8558 25.4217 21.8558C25.5945 21.8558 25.7252 21.9069 25.8034 22.0143C25.8823 22.1142 25.9236 22.2885 25.9236 22.5297V23.1104H25.9243Z" fill="#E8E8E8"/>
</svg>
